<?xml version="1.0" encoding="utf-8"?>
<!-- Generated by IcoMoon.io -->
<svg version="1.1" xmlns="http://www.w3.org/2000/svg" xmlns:xlink="http://www.w3.org/1999/xlink" width="752" height="176" viewBox="0 0 752 176">
<svg id="frenzy-badminton-racket-and-feather" width="32" height="32" viewBox="0 0 32 32" x="0" y="0">
<path d="M29.565 25.614l-6.311-6.31c-1.74-1.74-2.929-3.952-3.422-6.363v-0.002c0.93-3.116-0.068-6.935-2.863-9.731-3.82-3.819-9.557-4.297-12.788-1.065s-2.754 8.969 1.066 12.788c2.795 2.795 6.612 3.792 9.728 2.864l0.004 0.001c2.41 0.491 4.623 1.681 6.363 3.42l6.31 6.309c0.529 0.528 1.384 0.528 1.913 0 0.253-0.253 0.396-0.597 0.396-0.956s-0.142-0.702-0.396-0.956zM4.446 7.45h3.46v3.24h-2.736c-0.499-1.069-0.743-2.182-0.724-3.24zM9.488 7.45l3.245-0.001 0.002 1.808c0.001 0.478 0.001 0.955 0.002 1.432l-3.249 0.001v-3.24zM14.319 9.255l-0.002-1.806h2.731c0.499 1.069 0.743 2.182 0.723 3.24h-3.45c-0.001-0.477-0.001-0.955-0.002-1.434zM16.088 5.867h-1.773l-0.002-1.775c0.329 0.249 0.648 0.519 0.951 0.822s0.574 0.624 0.824 0.953zM12.729 3.131l0.003 2.736-3.244 0.001v-3.46c1.058-0.020 2.172 0.225 3.241 0.724zM7.905 2.646v3.221h-3.22c0.233-0.758 0.631-1.448 1.201-2.019s1.261-0.969 2.019-1.202zM6.129 12.273h1.777v1.777c-0.329-0.25-0.65-0.521-0.953-0.824s-0.574-0.624-0.824-0.953zM9.488 15.008v-2.736l3.251-0.001c0.002 1.204 0.003 2.366 0.003 3.46-1.063 0.022-2.181-0.222-3.255-0.723zM14.326 15.488c0-1.022-0.001-2.103-0.003-3.216h3.209c-0.233 0.759-0.631 1.448-1.202 2.019-0.567 0.567-1.252 0.964-2.005 1.197z"></path>
<path d="M15.272 20.957c-0.518-0.185-1.089-0.158-1.587 0.078l-0.089 0.042 1.776 3.754 0.087-0.041c1.037-0.49 1.48-1.727 0.989-2.765-0.236-0.498-0.659-0.882-1.177-1.067z"></path>
<path d="M11.807 21.923l1.776 3.753 0.963-0.455-1.775-3.754z"></path>
<path d="M2.54 23.271c0 0.001-0.001-0.001-0.002 0-0.41 0.194 0.182 2.302 1.319 4.708s2.393 4.2 2.801 4.007v0.001l5.993-5.868-1.775-3.755-8.335 0.907z"></path>
</svg>
<svg id="frenzy-bicycle-rider" width="32" height="32" viewBox="0 0 32 32" x="48" y="0">
<path d="M20.896 7.312c1.365 0.803 3.123 0.346 3.924-1.019 0.803-1.365 0.348-3.122-1.017-3.924-1.367-0.802-3.123-0.346-3.925 1.018-0.802 1.365-0.348 3.122 1.018 3.924z"></path>
<path d="M25.58 17.187c-0.157 0-0.312 0.013-0.467 0.024l-0.939-4.66 0.306-0.114c0.694-0.259 1.047-1.033 0.787-1.727s-1.038-1.047-1.727-0.787l-3.372 1.261-0.151-1.228c0.41-0.859 0.361-1.938-0.31-2.699-1.381-1.568-3.066-0.814-3.592-0.389l-6.954 5.634c-0.216 0.188-0.396 0.422-0.511 0.706-0.143 0.351-0.169 0.72-0.102 1.066-0.553 0.044-0.993 0.493-0.993 1.057 0 0.591 0.478 1.070 1.069 1.072l-0.442 1.035c-0.561-0.16-1.15-0.252-1.761-0.252-3.54 0-6.421 2.88-6.421 6.42s2.881 6.421 6.421 6.421c3.54 0 6.42-2.88 6.42-6.421 0-2.358-1.281-4.416-3.179-5.533l0.713-1.669h1.156l3.923 1.592-2.095 3.434c-0.54 0.886-0.26 2.042 0.626 2.583 0.305 0.186 0.643 0.275 0.976 0.275 0.633 0 1.252-0.321 1.606-0.901l1.909-3.13 1.241 0.749c-0.354 0.796-0.556 1.674-0.556 2.6 0 3.54 2.88 6.421 6.42 6.421s6.42-2.88 6.42-6.421c0-3.54-2.88-6.42-6.42-6.42zM6.421 28.417c-2.652 0-4.811-2.158-4.811-4.81s2.158-4.81 4.811-4.81c0.387 0 0.758 0.058 1.119 0.145l-1.333 3.117c-0.765 0.105-1.356 0.755-1.356 1.548 0 0.867 0.703 1.57 1.57 1.57 0.571 0 1.065-0.309 1.34-0.765h3.388c-0.386 2.269-2.351 4.005-4.728 4.005zM11.149 22.801h-3.388c-0.023-0.038-0.046-0.077-0.072-0.113l1.333-3.117c1.11 0.718 1.898 1.877 2.128 3.23zM19.313 18.883l0.499-0.818c0.287-0.471 0.353-1.044 0.181-1.567s-0.567-0.945-1.078-1.152l-3.431-1.392 2.111-1.71 0.117 0.956c0.049 0.408 0.284 0.771 0.635 0.984 0.213 0.129 0.454 0.194 0.696 0.194 0.158 0 0.318-0.028 0.47-0.085l3.133-1.171 0.887 4.405c-1.189 0.401-2.22 1.139-2.984 2.103l-1.237-0.746zM24.429 21.972l-2.473-1.493c0.513-0.593 1.157-1.062 1.901-1.349l0.573 2.842zM25.58 28.417c-2.652 0-4.81-2.158-4.81-4.81 0-0.621 0.128-1.21 0.343-1.756l2.899 1.75c0 0.002-0.001 0.004-0.001 0.006 0 0.867 0.703 1.57 1.569 1.57 0.867 0 1.57-0.703 1.57-1.57 0-0.682-0.437-1.256-1.045-1.473l-0.669-3.322c0.049-0.002 0.095-0.015 0.144-0.015 2.652 0 4.81 2.157 4.81 4.81s-2.158 4.81-4.81 4.81z"></path>
</svg>
<svg id="frenzy-boiting" width="32" height="32" viewBox="0 0 32 32" x="96" y="0">
<path d="M11.36 14.313h9.281v4.245h-9.281v-4.245z"></path>
<path d="M11.36 19.619v2.802c0 1.452 1.183 2.634 2.635 2.634h4.012c1.452 0 2.635-1.182 2.635-2.634v-2.802h-9.281z"></path>
<path d="M31.217 19.542l-6.331-2.966v-2.962l5.431 2.544c0.145 0.068 0.298 0.1 0.45 0.1 0.399 0 0.781-0.226 0.962-0.611 0.249-0.531 0.020-1.163-0.511-1.411l-6.331-2.966v-0.585c0-5.141-5.494-10.684-8.885-10.684s-8.885 5.543-8.885 10.684v0.585l-6.331 2.966c-0.531 0.249-0.76 0.881-0.511 1.411 0.18 0.385 0.563 0.611 0.962 0.611 0.151 0 0.305-0.032 0.45-0.1l5.431-2.544v2.962l-6.331 2.966c-0.531 0.249-0.76 0.881-0.511 1.412 0.18 0.385 0.563 0.611 0.962 0.611 0.151 0 0.305-0.032 0.45-0.1l5.431-2.544v7.509c0 3.077 2.494 5.572 5.572 5.572h6.628c3.077 0 5.572-2.495 5.572-5.572v-7.509l5.431 2.544c0.145 0.068 0.298 0.1 0.45 0.1 0.399 0 0.781-0.226 0.962-0.611 0.249-0.531 0.020-1.163-0.511-1.411zM22.232 22.421c0 2.33-1.897 4.226-4.226 4.226h-4.012c-2.33 0-4.226-1.896-4.226-4.226v-9.694c0-2.811 2.505-5.997 4.356-7.069 0.696-0.403 1.31-0.608 1.877-0.608s1.181 0.205 1.877 0.608c1.851 1.072 4.356 4.259 4.356 7.069v9.694z"></path>
<path d="M16 6.791c-1.806 0.121-4.64 3.757-4.64 5.936v0.524h9.281v-0.524c0-2.179-2.835-5.814-4.64-5.936z"></path>
</svg>
<svg id="frenzy-butterfly-catcher" width="32" height="32" viewBox="0 0 32 32" x="144" y="0">
<path d="M30.41 29.992l-21.292-23.542c-0.146-0.161-0.35-0.258-0.567-0.269-0.219-0.010-0.429 0.065-0.591 0.21l-4.238 3.829c-1.468 1.325-2.332 3.143-2.433 5.119s0.575 3.873 1.903 5.342c1.402 1.552 3.405 2.442 5.497 2.442 1.836 0 3.598-0.679 4.961-1.911l3.076-2.779 11.898 13.171c0.238 0.263 0.565 0.396 0.892 0.396 0.288 0 0.576-0.102 0.806-0.31 0.493-0.445 0.532-1.206 0.086-1.698zM7.897 8.658l1.009 1.116-2.124-0.108 1.116-1.008zM13.050 14.362l-2.712-0.138 0.137-2.712 2.576 2.85zM6.11 11.273l2.728 0.139-0.138 2.728-2.729-0.139 0.139-2.728zM8.617 15.777l-0.138 2.729-2.73-0.139 0.139-2.729 2.729 0.139zM5.666 20.005l2.73 0.139-0.067 1.32c-0.962-0.060-1.886-0.361-2.694-0.866l0.031-0.593zM10.034 20.227l2.067 0.105c-0.638 0.473-1.355 0.811-2.123 0.987l0.055-1.092zM10.117 18.589l0.138-2.729 2.729 0.139-0.14 2.729-2.727-0.139zM4.44 11.856l-0.106 2.062-1.083-0.055c0.252-0.742 0.653-1.42 1.189-2.007zM2.93 15.488l1.321 0.067-0.139 2.729-0.574-0.029c-0.423-0.853-0.646-1.792-0.607-2.767zM14.511 18.224l0.109-2.125 1.009 1.116-1.117 1.009z"></path>
<path d="M20.189 12.243c0.777 0.29 1.845-0.649 2.387-2.098 0.102-0.272 0.177-0.541 0.227-0.802 0.074-0.384 0.019-0.779-0.156-1.128l-1.32-2.639c-0.399-0.797-1.329-1.175-2.17-0.879-0.125 0.044-0.249 0.096-0.372 0.157-1.315 0.659-1.944 2.069-1.404 3.148 0.411 0.82 1.378 1.21 2.396 1.064-0.003 0.010-0.009 0.018-0.012 0.028-0.543 1.448-0.352 2.858 0.423 3.149z"></path>
<path d="M23.409 7.834c0.175 0.35 0.458 0.63 0.81 0.801 0.239 0.116 0.5 0.217 0.777 0.298 1.484 0.435 2.876 0.142 3.108-0.654 0.233-0.795-0.782-1.792-2.267-2.225-0.010-0.003-0.020-0.004-0.030-0.007 0.728-0.728 0.995-1.736 0.585-2.556-0.541-1.080-2.046-1.42-3.361-0.762-0.122 0.061-0.237 0.128-0.347 0.201-0.742 0.496-0.997 1.468-0.598 2.266l1.322 2.639z"></path>
<path d="M17.671 2.558c0.014 0.002 1.843-0.045 2.985 1.322 0.019 0.067 0.023 0.131 0.045 0.199 0.038 0.114 0.145 0.187 0.259 0.187 0.029 0 0.058-0.004 0.087-0.014 0.028-0.009 0.141-0.064 0.176-0.089 0.124-0.086 0.155-0.256 0.068-0.38-0.041-0.059-0.090-0.099-0.132-0.154-0.412-1.733 0.716-3.168 0.728-3.183 0.095-0.117 0.078-0.289-0.038-0.385s-0.287-0.079-0.384 0.038c-0.050 0.060-0.998 1.264-0.945 2.88-1.264-1.010-2.797-0.972-2.874-0.966-0.151 0.007-0.267 0.134-0.259 0.285 0.006 0.152 0.131 0.271 0.285 0.26z"></path>
</svg>
<svg id="frenzy-camper-caravan" width="32" height="32" viewBox="0 0 32 32" x="192" y="0">
<path d="M12.762 21.428c-2.194 0-3.978 1.784-3.978 3.978s1.785 3.977 3.978 3.977c2.194 0 3.977-1.784 3.977-3.977s-1.784-3.978-3.977-3.978zM12.762 26.605c-0.663 0-1.2-0.537-1.2-1.199s0.537-1.199 1.2-1.199c0.662 0 1.2 0.537 1.2 1.199s-0.538 1.199-1.2 1.199z"></path>
<path d="M30.849 18.737c-0.636 0-1.151 0.516-1.151 1.152v2.254c0 0.186-0.151 0.336-0.335 0.336h-3.839v-11.689c0-4.514-3.659-8.174-8.173-8.174h-9.177c-4.514-0-8.173 3.659-8.173 8.174v11.235c0 1.523 1.235 2.757 2.757 2.757h3.939c0.314-3.070 2.914-5.474 6.066-5.474s5.753 2.404 6.066 5.474h10.534c1.455 0 2.638-1.184 2.638-2.639v-2.254c0-0.636-0.516-1.152-1.151-1.152zM5.013 10.773c0-2.067 1.675-3.742 3.741-3.742h2.947v7.485h-2.947c-2.066 0-3.741-1.675-3.741-3.743zM16.769 14.515h-2.946v-7.485h2.946c2.067 0 3.742 1.676 3.742 3.742s-1.675 3.743-3.742 3.743z"></path>
</svg>
<svg id="frenzy-cart-wagon" width="32" height="32" viewBox="0 0 32 32" x="240" y="0">
<path d="M31.777 18.86c-0.36-0.465-1.028-0.55-1.496-0.19l-1.494 1.157-1.035-6.002c-0.045-0.261-0.185-0.497-0.395-0.659l-11.619-9.059c-0.464-0.363-1.135-0.279-1.497 0.185s-0.279 1.134 0.185 1.496l11.294 8.806 1.155 6.712-1.418 1.099c-0.511-0.964-1.403-1.687-2.483-1.96v-0.842h0.779c0.883 0 1.599-0.716 1.599-1.599s-0.716-1.599-1.599-1.599h-21.583c-0.883 0-1.599 0.716-1.599 1.599s0.716 1.599 1.599 1.599h0.777v0.843c-1.689 0.429-2.949 1.95-2.949 3.772 0 2.152 1.752 3.904 3.904 3.904 2.030 0 3.683-1.562 3.867-3.544h10.385c0.185 1.982 1.838 3.544 3.868 3.544 1.958 0 3.568-1.455 3.846-3.337l5.717-4.427c0.465-0.36 0.55-1.030 0.191-1.495zM3.904 25.988c-0.977 0-1.773-0.795-1.773-1.772s0.795-1.772 1.773-1.772c0.976 0 1.772 0.795 1.772 1.772s-0.795 1.772-1.772 1.772zM22.023 25.988c-0.977 0-1.773-0.795-1.773-1.772s0.795-1.772 1.773-1.772c0.976 0 1.771 0.795 1.771 1.772s-0.795 1.772-1.771 1.772z"></path>
</svg>
<svg id="frenzy-climbing" width="32" height="32" viewBox="0 0 32 32" x="288" y="0">
<path d="M31.717 13.238l-3.399-3.732c-0.305-0.335-0.703-0.571-1.143-0.679l-2.115-0.517-2.51-2.325-0.437-3.915c-0.066-0.587-0.587-1.011-1.184-0.945-0.588 0.065-1.011 0.595-0.945 1.183l0.482 4.311c0.029 0.255 0.148 0.492 0.337 0.667l3.649 3.38-1.496 6.19-3.95-0.095c-0.455-0.018-0.918 0.182-1.231 0.529l-3.847 4.262c-0.595 0.659-0.543 1.674 0.116 2.268 0.656 0.594 1.674 0.542 2.268-0.115l3.354-3.715 2.721 0.065-1.598 2.28c-0.246 0.35-0.341 0.784-0.266 1.206l1.022 5.694c0.14 0.777 0.817 1.323 1.579 1.323 0.094 0 0.19-0.008 0.285-0.026 0.873-0.157 1.454-0.992 1.298-1.865l-0.905-5.036 2.934-4.188c0.107-0.152 0.193-0.315 0.236-0.49 0.38-1.524 1.475-6.104 1.475-6.104l1.339 1.455-0.647 3.886c-0.097 0.583 0.297 1.134 0.88 1.232 0.059 0.010 0.118 0.015 0.177 0.015 0.514 0 0.968-0.371 1.055-0.895l0.733-4.402c0.054-0.325-0.045-0.658-0.269-0.901z"></path>
<path d="M26.153 7.823c1.126 0.764 2.661 0.469 3.426-0.659 0.764-1.128 0.469-2.662-0.659-3.427-1.129-0.765-2.662-0.469-3.427 0.658-0.764 1.129-0.47 2.663 0.66 3.428z"></path>
<path d="M13.992 4.916l5.414-3.962c0.133-0.097 0.187-0.268 0.137-0.423-0.051-0.155-0.197-0.261-0.361-0.261h-17.486c-0.937-0-1.696 0.759-1.696 1.695v29.23c0 0.244 0.164 0.456 0.4 0.518 0.235 0.061 0.483-0.045 0.601-0.258l4.639-8.335c0.149-0.266 0.258-0.552 0.327-0.849l1.603-6.944c0.142-0.616 0.462-1.178 0.919-1.616l2.85-2.729c0.491-0.47 0.822-1.082 0.947-1.75l0.429-2.289c0.152-0.813 0.607-1.537 1.276-2.026z"></path>
</svg>
<svg id="frenzy-climbing-sport" width="32" height="32" viewBox="0 0 32 32" x="336" y="0">
<path d="M17.539 5.065c1.398 0 2.534-1.134 2.534-2.533s-1.135-2.532-2.534-2.532-2.532 1.134-2.532 2.532c0 1.399 1.134 2.533 2.532 2.533z"></path>
<path d="M20.218 22.585l-3.040-2.79 0.135-1.027-4.529-0.278c-0.27 0.415-0.644 0.936-1.111 1.494l-1.239 4.681-3.551 4.771c-0.529 0.712-0.383 1.717 0.329 2.247 0.288 0.214 0.624 0.318 0.958 0.318 0.49 0 0.973-0.224 1.289-0.647l3.736-5.019c0.122-0.164 0.212-0.35 0.265-0.548l1.075-4.058 2.942 2.701-0.401 5.855c-0.061 0.885 0.606 1.652 1.492 1.712 0.037 0.003 0.074 0.004 0.112 0.004 0.836 0 1.542-0.649 1.6-1.496l0.455-6.626c0.034-0.487-0.157-0.963-0.516-1.293z"></path>
<path d="M25.772 11.858h-4.525l-2.552-3.623 0.008-0.062c0.091-0.692-0.097-1.392-0.523-1.946s-1.053-0.915-1.745-1.006c-0.767-0.1-1.493 0.147-2.039 0.61v-3.014c0-0.519-0.42-0.939-0.94-0.939h-2.604c-0.52 0-0.94 0.421-0.94 0.939v1.463h-0.778c-0.555 0-1.075 0.275-1.387 0.735s-0.377 1.044-0.173 1.561l2.339 5.938v1.469c0 0.721 0.296 1.366 0.768 1.838 0.326-0.393 0.824-0.628 1.327-0.594l5.726 0.352 0.448-3.422 1.278 1.813c0.251 0.356 0.659 0.568 1.094 0.568h5.22c0.739 0 1.338-0.599 1.338-1.338s-0.599-1.339-1.338-1.339z"></path>
<path d="M12.353 17.659l5.317 0.327c0.46 0.036 0.824-0.31 0.851-0.752s-0.309-0.823-0.753-0.851l-5.812-0.357c-0.324-0.023-0.619 0.152-0.763 0.436-0.132 0.257-3.282 6.259-9.279 5.415-0.431-0.059-0.845 0.244-0.906 0.683s0.244 0.845 0.683 0.907c0.465 0.065 0.916 0.096 1.351 0.096 5.247-0.001 8.408-4.433 9.311-5.904z"></path>
<path d="M30.813 16.246c-0.919-0.633-2.353-1.221-4.302-1.195-2.293 0.031-4.434 1.794-4.473 1.837-0.396 0.442-0.36 1.121 0.083 1.518 0.441 0.397 1.121 0.36 1.517-0.082l0.007-0.008c0 0 1.26-1.32 2.38-1.611l-0.376 13.953c0 0.020 0 0.044 0 0.064 0.019 0.659 0.567 1.179 1.225 1.161s1.179-0.566 1.163-1.225l-0.385-14.3c1.763 0.029 2.827 0.578 2.827 0.578 0.171 0.067 0.371 0.001 0.468-0.162 0.109-0.183 0.041-0.406-0.134-0.527z"></path>
</svg>
<svg id="frenzy-climbing-with-rope" width="32" height="32" viewBox="0 0 32 32" x="384" y="0">
<path d="M27.552 16.159c-0.622-1.663-2.493-6.652-2.493-6.652-0.411-1.095-1.631-1.65-2.726-1.24l-1.776 0.665-2.822 0.505-2.93-2.812c-0.234-0.227-0.545-0.309-0.846-0.277l-2.909-5.962c-0.127-0.263-0.443-0.373-0.709-0.244-0.264 0.129-0.373 0.447-0.245 0.71l2.996 6.139c-0.159 0.391-0.081 0.856 0.243 1.166l0.612 0.587 3.884 7.961-0.942 2.988-1.336-0.914c-0.467-0.319-0.784-0.814-0.88-1.371l-1.031-5.982c-0.038-0.225-0.114-0.441-0.222-0.641l-2.004-3.703-1.778-6.464c-0.101-0.365-0.432-0.618-0.811-0.618h-3.697c-0.464 0-0.841 0.377-0.841 0.841v30.186c0 0.464 0.377 0.841 0.84 0.841h17.604c0.301 0 0.581-0.162 0.73-0.424s0.147-0.585-0.006-0.844l-3.021-5.113c-0.066-0.112-0.121-0.23-0.166-0.352l-1.177-3.256c0.337-0.192 0.607-0.503 0.733-0.902l0.033-0.108 5.286 10.834c0.091 0.189 0.28 0.298 0.477 0.298 0.078 0 0.158-0.017 0.233-0.054 0.263-0.129 0.373-0.447 0.245-0.71l-2.655-5.443c0.021 0.001 0.040 0.010 0.062 0.010 0.12 0 0.245-0.014 0.367-0.043 0.857-0.202 1.387-1.061 1.185-1.917l-0.894-3.784 2.855-1.725c0.56-0.339 0.911-1.162 0.532-2.176zM16.169 10.878l0.486 0.467c0.199 0.192 0.465 0.296 0.737 0.296 0.062 0 0.124-0.006 0.187-0.017l3.502-0.627 1.337 3.568-2.264-0.467c-0.801-0.165-1.596 0.302-1.841 1.082l-0.018 0.054-2.125-4.356zM20.325 19.395l0.593-1.886 0.974 0.201-0.368 0.223c-0.593 0.358-0.886 1.057-0.727 1.73l0.32 1.36-0.793-1.628z"></path>
<path d="M21.023 7.945c1.316 0 2.384-1.067 2.384-2.384s-1.067-2.384-2.384-2.384c-1.316 0-2.385 1.067-2.385 2.384s1.069 2.384 2.385 2.384z"></path>
</svg>
<svg id="frenzy-closed-barbacue" width="32" height="32" viewBox="0 0 32 32" x="432" y="0">
<path d="M20.963 4.432v-1.518c0-1.607-1.308-2.915-2.914-2.915h-4.097c-1.606 0-2.914 1.308-2.914 2.915v1.518c-2.702 1.107-4.661 3.084-5.174 5.424h20.274c-0.513-2.34-2.472-4.317-5.174-5.424zM12.647 2.915c0-0.72 0.585-1.305 1.304-1.305h4.097c0.72 0 1.305 0.585 1.305 1.305v0.987c-1.051-0.269-2.178-0.421-3.353-0.421s-2.302 0.152-3.353 0.421v-0.987z"></path>
<path d="M26.289 28.637c-0.34-0.943-1.186-1.55-2.121-1.642l-3.321-9.221c2.881-1.144 4.941-3.268 5.352-5.772h-20.399c0.411 2.505 2.472 4.629 5.352 5.772l-3.321 9.221c-0.935 0.092-1.781 0.699-2.121 1.642-0.471 1.305 0.206 2.744 1.512 3.214s2.744-0.206 3.214-1.512c0.34-0.942 0.074-1.95-0.587-2.616l1.683-4.674h3.394v4.838c0 0.593 0.48 1.073 1.073 1.073s1.073-0.48 1.073-1.073v-4.838h3.394l1.683 4.674c-0.661 0.666-0.926 1.674-0.587 2.616 0.469 1.305 1.908 1.982 3.214 1.512s1.983-1.909 1.512-3.214zM11.92 21.975l1.29-3.58c0.554 0.115 1.129 0.196 1.717 0.241v3.339h-3.007zM17.073 21.975v-3.339c0.589-0.045 1.163-0.126 1.717-0.241l1.29 3.58h-3.007z"></path>
</svg>
<svg id="frenzy-digital-camera" width="32" height="32" viewBox="0 0 32 32" x="480" y="0">
<path d="M28.828 6.986h-1.020l-1.035-4.208c-0.151-0.616-0.703-1.049-1.337-1.049h-12.475c-0.633 0-1.185 0.433-1.337 1.049l-1.034 4.208h-1.814v-1.279c0-0.76-0.617-1.377-1.377-1.377h-2.713c-0.76 0-1.377 0.617-1.377 1.377v1.279h-0.14c-1.752 0-3.172 1.42-3.172 3.172v16.941c0 1.751 1.42 3.172 3.172 3.172h25.656c1.752 0 3.172-1.42 3.172-3.172v-16.941c-0-1.752-1.42-3.172-3.172-3.172zM16 25.983c-4.062 0-7.355-3.293-7.355-7.355s3.294-7.355 7.355-7.355c4.061 0 7.355 3.293 7.355 7.355s-3.294 7.355-7.355 7.355z"></path>
<path d="M15.568 12.924c-2.906 0-5.271 2.365-5.271 5.272 0 0.589 0.477 1.067 1.067 1.067s1.067-0.478 1.067-1.067c0-1.731 1.407-3.139 3.137-3.139 0.59 0 1.067-0.478 1.067-1.067s-0.477-1.067-1.067-1.067z"></path>
</svg>
<svg id="frenzy-fishing-fish" width="32" height="32" viewBox="0 0 32 32" x="528" y="0">
<path d="M7.529 20.503c-0.827 0-2.264 2.127-3.059 4.091-0.064 0.157 0.009 0.337 0.143 0.441 0.132 0.105 0.316 0.118 0.462 0.035 0.399-0.226 0.907-0.448 1.428-0.559v2.388c0 1.227-0.997 2.225-2.225 2.225-1.226 0-2.224-0.998-2.224-2.225v-25.049c0-0.567-0.46-1.027-1.028-1.027s-1.026 0.46-1.026 1.027v25.049c0 2.359 1.919 4.278 4.278 4.278 2.359 0 4.279-1.919 4.279-4.278v-5.369c0-0.567-0.459-1.027-1.027-1.027z"></path>
<path d="M31.102 22.502c0-1.356 0.41-2.856 0.868-3.932 0.082-0.196-0.008-0.412-0.22-0.527-0.214-0.116-0.497-0.103-0.692 0.032-1.083 0.75-1.753 1.632-2.182 2.39-1.682-0.903-4.184-1.652-6.461-2.13-0.072-1.001 0.112-1.901 0.27-2.462 0.041-0.143 0.002-0.297-0.1-0.405-0.103-0.108-0.255-0.154-0.4-0.12-1.338 0.308-2.726 1.51-3.626 2.427-0.18-0.011-0.358-0.019-0.508-0.019-3.137 0-7.101 2.146-7.101 4.794s3.964 4.794 7.101 4.794c0.177 0 0.383-0.009 0.598-0.022 0.649 0.703 1.863 1.867 3.035 2.137 0.111 0.025 0.226-0.009 0.305-0.092s0.107-0.2 0.076-0.308c-0.136-0.485-0.293-1.306-0.166-2.194 2.406-0.47 5.164-1.258 6.977-2.231 0.428 0.758 1.099 1.64 2.181 2.39 0.195 0.134 0.478 0.148 0.692 0.032 0.212-0.115 0.302-0.332 0.22-0.527-0.459-1.077-0.867-2.669-0.867-4.025zM14.634 22.376c-0.524 0-0.949-0.426-0.949-0.95 0-0.525 0.426-0.951 0.949-0.951 0.527 0 0.95 0.426 0.95 0.951 0 0.524-0.424 0.95-0.95 0.95z"></path>
<path d="M6.793 3.454c0.443 0 0.802-0.359 0.802-0.802s-0.359-0.802-0.802-0.802c-0.443 0-0.802 0.359-0.802 0.802s0.359 0.802 0.802 0.802z"></path>
<path d="M9.892 8.396c0.55 0 0.995-0.445 0.995-0.995s-0.445-0.994-0.995-0.994c-0.55 0-0.994 0.445-0.994 0.994s0.444 0.995 0.994 0.995z"></path>
<path d="M8.237 11.989c-0.797 0-1.444 0.646-1.444 1.444s0.647 1.444 1.444 1.444c0.797 0 1.443-0.646 1.443-1.444s-0.647-1.444-1.443-1.444z"></path>
<path d="M11.309 17.503c0-0.449-0.364-0.814-0.814-0.814-0.45 0-0.814 0.365-0.814 0.814s0.364 0.814 0.814 0.814c0.451 0 0.814-0.365 0.814-0.814z"></path>
</svg>
<svg id="frenzy-fishing-man" width="32" height="32" viewBox="0 0 32 32" x="576" y="0">
<path d="M7.010 10.327c1.336 0 2.419-1.083 2.419-2.42s-1.083-2.419-2.419-2.419c-1.337 0-2.419 1.083-2.419 2.419s1.082 2.42 2.419 2.42z"></path>
<path d="M31.684 24.093c-0.421-0.421-1.105-0.42-1.524 0.001-0.352 0.352-0.963 0.353-1.318-0.002-0.761-0.761-1.889-1.017-2.907-0.784-4.821-9.072-4.753-15.046-4.667-16.315l0.722-0.547c0.236-0.18 0.283-0.518 0.103-0.755-0.18-0.236-0.518-0.284-0.756-0.104l-8.434 6.398c-0.326-0.317-0.822-0.416-1.246-0.191l-2.738 1.45-2.068-1.614c-0.246-0.462-0.604-0.784-1.137-1.010-0.148-0.063-0.642-0.214-1.122-0.103-0.722 0.167-1.379 0.613-1.657 1.357 0 0-1.905 5.070-2.512 6.705-0.477 1.285 0.47 2.488 1.359 2.488 0.003 0 0.005 0 0.007 0l5.202-0.025 1.749 4.409c0.253 0.634 0.86 1.021 1.503 1.021 0.199 0 0.4-0.037 0.596-0.114 0.831-0.329 1.236-1.27 0.908-2.1l-2.156-5.435c-0.244-0.616-0.84-1.021-1.504-1.021-0.002 0-0.005 0-0.008 0l-2.766 0.013 1.349-3.599 1.48 1.156c0.194 0.15 0.427 0.228 0.663 0.228 0.173 0 0.346-0.041 0.505-0.125l3.355-1.777c0.228-0.121 0.382-0.319 0.475-0.541l7.562-5.736c-0.061 1.977 0.266 7.66 4.71 16.051-0.344 0.146-0.666 0.348-0.939 0.621-0.346 0.346-0.967 0.346-1.314 0-1.168-1.169-3.202-1.168-4.368-0.002-0.353 0.352-0.967 0.351-1.318 0-0.421-0.421-1.103-0.421-1.524 0s-0.421 1.103 0 1.524c1.203 1.204 3.163 1.206 4.367 0 0.352-0.352 0.965-0.352 1.319 0.002 0.582 0.583 1.357 0.904 2.181 0.904s1.599-0.321 2.183-0.906c0.352-0.352 0.963-0.353 1.319 0.002 1.202 1.203 3.16 1.203 4.366-0.002 0.421-0.421 0.42-1.103-0.001-1.524z"></path>
<path d="M5.746 21.8h-4.98c-0.423 0-0.766 0.343-0.766 0.766v3.184c0 0.423 0.343 0.766 0.766 0.766h4.98c0.423 0 0.767-0.343 0.767-0.766v-3.184c0-0.423-0.343-0.766-0.767-0.766z"></path>
</svg>
<svg id="frenzy-food-on-branch" width="32" height="32" viewBox="0 0 32 32" x="624" y="0">
<path d="M31.768 0.232c-0.31-0.309-0.811-0.309-1.12 0l-3.625 3.624c-1.468-1.362-3.273-2.645-4.482-2.645-0.489 0-0.792 0.201-0.96 0.369-0.022 0.022-6.072 6.070-6.072 6.070-1.21 1.211 0.977 3.938 2.219 5.298l-17.234 16.316c-0.021 0.020-0.044 0.044-0.064 0.064-0.6 0.637-0.569 1.64 0.068 2.24s1.64 0.569 2.24-0.068l7.309-7.766 5.755-0.020c0.438-0.002 0.791-0.357 0.789-0.794-0.001-0.437-0.355-0.789-0.792-0.789 0 0-0.001 0-0.002 0l-4.254 0.014 7.455-7.92c1.468 1.357 3.247 2.623 4.418 2.623 0 0 0 0 0.001 0 0.473 0 0.768-0.195 0.931-0.359 0 0 6.036-6.035 6.072-6.071 0.569-0.569 0.478-1.517-0.273-2.818-0.467-0.809-1.172-1.722-2.007-2.62l3.629-3.628c0.309-0.309 0.309-0.81 0-1.12zM23.339 15.258c-0.549-0.083-2.056-0.963-3.846-2.752-1.852-1.852-2.678-3.36-2.753-3.845l4.825-4.824c0.084 0.179 0.176 0.365 0.29 0.561 0.567 0.983 1.474 2.118 2.552 3.196 1.114 1.115 2.536 2.276 3.759 2.84l-4.826 4.826zM29.134 9.133c-0.689-0.241-2.052-1.103-3.608-2.659-1.606-1.606-2.427-2.956-2.66-3.608 0.605 0.212 1.733 0.904 3.052 2.125-0.238 0.31-0.228 0.751 0.057 1.035 0.155 0.155 0.357 0.232 0.559 0.232 0.17 0 0.334-0.067 0.475-0.175 1.256 1.358 1.92 2.476 2.125 3.051z"></path>
</svg>
<svg id="frenzy-forester-house" width="32" height="32" viewBox="0 0 32 32" x="672" y="0">
<path d="M30.288 12.708l-5.892-5.892v-5.395c0-0.327-0.265-0.593-0.593-0.593h-1.947c-0.328 0-0.593 0.266-0.593 0.593v2.263l-2.572-2.572c-1.486-1.484-3.902-1.484-5.386 0.001l-11.595 11.595c-0.626 0.626-0.626 1.641 0 2.266s1.64 0.626 2.266 0l11.595-11.595c0.236-0.235 0.617-0.235 0.853-0.001l11.596 11.595c0.313 0.313 0.723 0.469 1.133 0.469s0.82-0.156 1.133-0.469c0.626-0.626 0.626-1.641 0-2.266z"></path>
<path d="M28.379 16.767c0-1.032-0.837-1.87-1.87-1.87h-0.753l-9.337-9.337c-0.232-0.232-0.607-0.232-0.839 0l-9.337 9.337h-0.752c-1.033 0-1.87 0.837-1.87 1.87 0 0.735 0.428 1.365 1.045 1.67-0.618 0.305-1.045 0.935-1.045 1.67s0.428 1.365 1.045 1.67c-0.618 0.305-1.045 0.935-1.045 1.67s0.428 1.365 1.045 1.67c-0.618 0.305-1.045 0.935-1.045 1.671 0 0.73 0.422 1.356 1.033 1.664-0.624 0.303-1.058 0.937-1.058 1.677 0 1.032 0.837 1.87 1.87 1.87h6.953v-8.172c0-0.589 0.477-1.066 1.066-1.066h5.031c0.589 0 1.066 0.477 1.066 1.066v8.172h6.903c1.033 0 1.87-0.837 1.87-1.87 0-0.73-0.423-1.356-1.033-1.664 0.624-0.303 1.057-0.937 1.057-1.677 0-0.735-0.428-1.365-1.046-1.671 0.618-0.305 1.046-0.935 1.046-1.67s-0.428-1.365-1.046-1.67c0.618-0.305 1.046-0.935 1.046-1.67s-0.428-1.365-1.046-1.67c0.618-0.305 1.046-0.935 1.046-1.67z"></path>
</svg>
<svg id="frenzy-golf-ball-and-iron" width="32" height="32" viewBox="0 0 32 32" x="720" y="0">
<path d="M23.364 22.969c-1.196-0.042-2.33 0.53-3.009 1.516l-1.538 2.238-15.366-26.072c-0.37-0.629-1.18-0.838-1.809-0.467-0.302 0.178-0.521 0.468-0.609 0.808s-0.038 0.699 0.141 1.002l17.036 28.904c0.629 1.066 2.002 1.42 3.068 0.792l3.74-2.204c1.666-0.982 2.22-3.128 1.239-4.795-0.607-1.031-1.699-1.68-2.894-1.722z"></path>
<path d="M27.658 13.422c1.59 0 2.88-1.29 2.88-2.88s-1.291-2.881-2.88-2.881c-1.592 0-2.882 1.29-2.882 2.881s1.29 2.88 2.882 2.88z"></path>
<path d="M30.773 14.394c-0.314-0.314-0.82-0.313-1.131 0.001-1.058 1.061-2.907 1.061-3.969 0.001-0.313-0.312-0.819-0.311-1.131 0.002s-0.31 0.82 0.002 1.132c0.451 0.45 0.985 0.779 1.565 0.997l0.604 3.694c0.075 0.464 0.476 0.805 0.946 0.805s0.871-0.341 0.947-0.805l0.603-3.694c0.579-0.218 1.115-0.548 1.566-1.001 0.311-0.313 0.311-0.819-0.001-1.131z"></path>
</svg>
<svg id="frenzy-hiking" width="32" height="32" viewBox="0 0 32 32" x="0" y="48">
<path d="M17.012 5.419c1.497 0 2.71-1.213 2.71-2.71s-1.213-2.709-2.71-2.709c-1.495 0-2.709 1.213-2.709 2.709s1.214 2.71 2.709 2.71z"></path>
<path d="M26.691 14.005c0-0.772-0.626-1.398-1.398-1.398h-4.728l-2.666-3.786 0.009-0.064c0.095-0.723-0.102-1.454-0.546-2.033s-1.1-0.956-1.823-1.051c-0.801-0.104-1.56 0.154-2.13 0.637v-3.149c0-0.542-0.439-0.982-0.982-0.982h-2.72c-0.543 0-0.982 0.44-0.982 0.982v11.664c0 1.428 1.092 2.587 2.484 2.723l-0.21 0.488-1.647 6.223-3.709 4.984c-0.553 0.743-0.4 1.794 0.344 2.347 0.3 0.224 0.652 0.332 1 0.332 0.512 0 1.017-0.234 1.347-0.676l3.903-5.243c0.128-0.172 0.222-0.366 0.276-0.572l1.123-4.24 3.074 2.822-0.419 6.117c-0.063 0.925 0.634 1.725 1.559 1.789 0.038 0.003 0.078 0.004 0.117 0.004 0.874 0 1.611-0.678 1.671-1.563l0.475-6.922c0.035-0.508-0.164-1.006-0.54-1.351l-3.175-2.915 0.966-6.256 1.335 1.894c0.262 0.372 0.688 0.593 1.143 0.593h4.894l0.092 16.037c0 0.309 0.25 0.559 0.559 0.559s0.559-0.25 0.559-0.559l-0.092-16.158c0.493-0.216 0.839-0.706 0.839-1.278z"></path>
</svg>
<svg id="frenzy-horse-riding" width="32" height="32" viewBox="0 0 32 32" x="48" y="48">
<path d="M23.552 19.507l1.489-3.387c-0.27-0.017-0.54-0.051-0.807-0.117-1.554-0.39-2.716-1.612-3.522-2.931h-1.535c0.196 0.68 0.084 1.409-0.305 1.998l-3.042 4.639c-0.451 0.687-1.21 1.096-2.033 1.096-0.474 0-0.934-0.138-1.331-0.398-1.12-0.735-1.432-2.244-0.697-3.363l1.495-2.281-1.723-0.794c-0.428-0.197-0.778-0.509-1.025-0.897h-1.006c-1.054 0-2.006 0.399-2.749 1.035-1.035-0.712-4.84-2.983-6.072 1.206-1.289 4.38 1.677 5.125-0.576 7.11-0.119 0.105-0.147 0.279-0.068 0.417 0.080 0.137 0.245 0.2 0.395 0.149 1.069-0.362 2.502-1.482 3.015-4.816 0.346-2.251 1.454-3.042 2.397-2.972-0.362 0.625-0.585 1.34-0.585 2.114 0 1.169 0.473 2.227 1.238 2.994l-1.708 2.609c-0.122 0.187-0.187 0.413-0.175 0.652l0.39 7.093c0.020 0.353 0.279 0.661 0.642 0.728 0.426 0.078 0.835-0.204 0.913-0.63l0.78-4.257 1.25 4.335c0.099 0.34 0.42 0.583 0.789 0.566 0.433-0.019 0.768-0.385 0.748-0.818l-0.285-6.351 1.849-2.677h5.969l1.235 2.47-0.999 6.469c-0.059 0.382 0.152 0.768 0.528 0.913 0.433 0.167 0.92-0.048 1.087-0.482l2.053-5.313 1.017 5.197c0.076 0.388 0.428 0.67 0.833 0.648 0.444-0.025 0.782-0.404 0.757-0.848l-0.625-11.105z"></path>
<path d="M17.049 4.58c1.116 0 2.021-0.905 2.021-2.023s-0.906-2.023-2.021-2.023c-1.119 0-2.023 0.905-2.023 2.023s0.904 2.023 2.023 2.023z"></path>
<path d="M31.478 9.040l-3.687-3.092 0.314-2.92c0.013-0.125-0.054-0.245-0.166-0.301-0.114-0.056-0.249-0.035-0.34 0.052l-1.692 1.618-1.205 2.698-1.911 2.866c0.549 1.385 1.346 2.688 2.231 2.908 0.451 0.112 1.018-0.063 1.658-0.479l0.721-1.642 1.825 0.816c-1.705 1.874-3.209 2.668-4.467 2.349-1.914-0.478-3.076-3.522-3.519-5.232 0.052-0.178 0.065-0.368-0.003-0.556-0.134-0.366-0.479-0.593-0.847-0.593-0.103 0-0.207 0.018-0.309 0.055l-2.375 0.867-0.803-1.772c0-0.001 0.001-0.002 0.001-0.002 0.144-0.379 0.13-0.8-0.039-1.169s-0.479-0.654-0.86-0.792l-0.167-0.060c-0.748-0.271-1.576 0.082-1.9 0.808-0.581 1.301-1.544 3.441-2.606 5.73-0.313 0.678-0.017 1.48 0.661 1.794l2.857 1.318-2.181 3.326c-0.41 0.625-0.235 1.463 0.388 1.872 0.228 0.149 0.486 0.221 0.74 0.221 0.44 0 0.872-0.213 1.133-0.61l3.042-4.639c0.216-0.329 0.548-1.459-0.495-1.934-0.678-0.309-2.361-1.093-2.361-1.093l0.89-2.378c0.445 0.981 0.592 1.41 1.127 1.41 0.51 0 1.386-0.394 3.198-1.065 0.512 1.752 1.756 4.936 4.165 5.54 0.267 0.067 0.537 0.1 0.813 0.1 1.541 0 3.223-1.054 5.016-3.119 0.2 0.009 0.401-0.017 0.591-0.090 0.363-0.139 0.655-0.416 0.813-0.77l0.144-0.322c0.266-0.597 0.105-1.298-0.395-1.718z"></path>
</svg>
<svg id="frenzy-jumping-to-the-water" width="32" height="32" viewBox="0 0 32 32" x="96" y="48">
<path d="M10.586 7.982c0.165 0.376 0.536 0.618 0.946 0.618 0.002 0 0.006 0 0.008 0l2.196-0.018c0 0-2.081 5.417-2.22 5.848-0.172 0.531-0.224 0.915-0.027 1.344l1.253 2.74-3.138 2.059c-0.715 0.469-0.914 1.429-0.446 2.144 0.297 0.453 0.791 0.699 1.296 0.699 0.291 0 0.586-0.082 0.848-0.254l4.25-2.788c0.64-0.42 0.877-1.243 0.559-1.939l-0.998-2.182 2.911-0.601 1.061 3.368c0.256 0.816 1.127 1.269 1.942 1.012 0.815-0.257 1.268-1.126 1.012-1.942l-1.482-4.702c-0.24-0.759-1.014-1.212-1.79-1.051l-2.199 0.454 1.209-3.226 4.63-0.708c0.246-0.038 0.469-0.162 0.629-0.35l2.645-3.097c0.371-0.434 0.32-1.085-0.114-1.455s-1.086-0.319-1.455 0.114l-2.396 2.805-3.213 0.491-2.239-0.768c-0.222-0.076-0.455-0.113-0.69-0.111l-3.37 0.042-1.526-3.482c-0.229-0.522-0.84-0.759-1.36-0.531-0.522 0.229-0.76 0.838-0.531 1.36l1.799 4.105z"></path>
<path d="M18.193 6.415c1.28 0 2.317-1.037 2.317-2.317s-1.036-2.317-2.317-2.317c-1.279 0-2.316 1.037-2.316 2.317s1.037 2.317 2.316 2.317z"></path>
<path d="M31.698 27.891c-0.403-0.403-1.056-0.403-1.46 0-0.348 0.347-0.914 0.348-1.262 0-1.117-1.118-3.061-1.119-4.182 0.001-0.333 0.335-0.924 0.336-1.261-0.002-1.116-1.115-3.059-1.117-4.181 0.002-0.333 0.335-0.924 0.335-1.261-0.003-1.117-1.116-3.063-1.116-4.18 0l-0.016 0.017c-0.34 0.323-0.913 0.316-1.247-0.016-1.117-1.117-3.061-1.119-4.182 0.002-0.334 0.335-0.923 0.334-1.26-0.002-1.117-1.117-3.065-1.117-4.181 0-0.347 0.347-0.913 0.348-1.261 0-0.403-0.403-1.057-0.403-1.46 0s-0.403 1.056 0 1.46c1.152 1.153 3.029 1.152 4.18 0 0.337-0.337 0.926-0.337 1.262 0 0.56 0.559 1.303 0.867 2.091 0.867s1.53-0.307 2.091-0.867c0.336-0.337 0.924-0.337 1.261 0 1.116 1.117 3.061 1.118 4.18 0.002l0.016-0.017c0.339-0.324 0.914-0.316 1.246 0.014 1.109 1.111 3.074 1.109 4.18 0.003 0.34-0.339 0.924-0.34 1.263-0.001 1.109 1.109 3.074 1.107 4.18 0.001 0.341-0.339 0.925-0.339 1.263-0.001 1.153 1.152 3.029 1.151 4.181-0.001 0.403-0.403 0.403-1.056-0-1.46z"></path>
</svg>
<svg id="frenzy-kayak" width="32" height="32" viewBox="0 0 32 32" x="144" y="48">
<path d="M16 9.206c1.307 0 2.376 2.756 2.477 6.257l2.547 2.547c0.050-0.66 0.083-1.328 0.083-2.009 0-6.845-2.707-12.745-4.178-15.449-0.185-0.34-0.541-0.552-0.927-0.552-0.387-0.001-0.743 0.211-0.928 0.551-0.92 1.689-2.322 4.627-3.244 8.264l2.405 2.405c0.451-1.243 1.075-2.014 1.766-2.014z"></path>
<path d="M16 22.794c-1.307 0-2.376-2.756-2.477-6.256l-2.546-2.547c-0.050 0.66-0.083 1.329-0.083 2.010 0 6.845 2.706 12.745 4.179 15.448 0.184 0.34 0.541 0.551 0.927 0.551 0.387-0.001 0.743-0.212 0.928-0.551 0.92-1.69 2.321-4.627 3.244-8.262l-2.406-2.406c-0.451 1.243-1.075 2.013-1.766 2.013z"></path>
<path d="M28.82 25.185l-2.508-2.508c-0.482-0.482-1.136-0.753-1.817-0.753-0.31 0-0.612 0.063-0.896 0.169l-13.691-13.692c0.106-0.285 0.169-0.586 0.169-0.895 0-0.682-0.271-1.336-0.754-1.818l-2.508-2.508c-0.15-0.151-0.354-0.235-0.568-0.235-0.212 0-0.416 0.084-0.568 0.235l-2.498 2.499c-0.315 0.314-0.315 0.823 0 1.136l2.508 2.508c0.734 0.734 1.8 0.925 2.714 0.586l13.688 13.688c-0.339 0.914-0.149 1.98 0.585 2.714l2.508 2.509c0.152 0.151 0.356 0.235 0.568 0.235 0.215 0 0.418-0.084 0.568-0.235l2.5-2.499c0.314-0.314 0.314-0.823-0-1.137z"></path>
</svg>
<svg id="frenzy-lantern-on" width="32" height="32" viewBox="0 0 32 32" x="192" y="48">
<path d="M30.758 24.759l-7.853-7.853c-0.35-0.349-0.917-0.349-1.267 0l-4.732 4.733c-0.35 0.349-0.35 0.916 0 1.265l7.853 7.853c1.656 1.656 4.341 1.656 5.998 0 1.656-1.656 1.656-4.342-0-5.998z"></path>
<path d="M21.312 11.597l-3.047-3.048c-0.341-0.341-0.826-0.503-1.407-0.503-1.545 0.001-3.764 1.147-5.715 3.098-2.684 2.684-3.845 5.872-2.595 7.122l3.047 3.047c0.768 0.767 2.010 0.767 2.778 0.001l6.94-6.94c0.368-0.369 0.575-0.868 0.575-1.389s-0.207-1.020-0.575-1.388zM17.082 9.911c-0.822 0.823-5.559 5.562-7.251 7.253-0.043 0.042-0.086 0.083-0.149-0.020h-0.001c-0.206-0.353 0.179-2.463 2.589-4.873 1.807-1.807 3.645-2.631 4.587-2.631 0.055 0 0.108 0.008 0.156 0.021 0.111 0.031 0.15 0.168 0.068 0.25z"></path>
<path d="M28.418 18.371c0-0.521-0.206-1.020-0.574-1.388l-0.514-0.514c-0.767-0.767-2.010-0.767-2.777 0l3.29 3.29c0.368-0.368 0.575-0.867 0.575-1.388z"></path>
<path d="M8.731 10.235c0.208 0.208 0.48 0.312 0.752 0.312s0.544-0.104 0.752-0.312c0.415-0.415 0.415-1.088 0-1.503l-4.798-4.798c-0.415-0.415-1.088-0.415-1.503 0s-0.415 1.088 0 1.503l4.798 4.798z"></path>
<path d="M11.34 6.808c0.107 0.499 0.547 0.841 1.039 0.841 0.073 0 0.147-0.007 0.222-0.023 0.574-0.122 0.94-0.687 0.818-1.261l-1.177-5.522c-0.122-0.574-0.685-0.943-1.26-0.818-0.575 0.122-0.94 0.687-0.818 1.261l1.176 5.522z"></path>
<path d="M6.808 11.341l-5.522-1.177c-0.577-0.121-1.14 0.245-1.262 0.818s0.245 1.139 0.818 1.261l5.523 1.177c0.075 0.016 0.149 0.023 0.222 0.023 0.492 0 0.932-0.342 1.039-0.841 0.123-0.574-0.244-1.139-0.818-1.261z"></path>
</svg>
<svg id="frenzy-man-flying-a-kite" width="32" height="32" viewBox="0 0 32 32" x="240" y="48">
<path d="M13.687 11.471c1.167 0.306 2.361-0.391 2.667-1.558s-0.393-2.36-1.559-2.666c-1.166-0.306-2.359 0.391-2.665 1.558s0.391 2.36 1.558 2.666z"></path>
<path d="M31.37 0.904c-0.071-0.097-0.176-0.161-0.294-0.18l-4.545-0.719c-0.175-0.028-0.352 0.051-0.449 0.201l-4.886 7.56c-0.811 0.835-1.211 1.376-1.611 2.48-0.286-0.017-0.578 0.075-0.802 0.289l-3.043 2.925-1.751-0.712c-0.229-0.448-0.603-0.806-1.073-0.998-0.54-0.22-1.093-0.186-1.718 0.023-1.26 0.421-5.049 1.664-5.049 1.664-0.308 0.101-0.553 0.337-0.667 0.641s-0.083 0.643 0.084 0.921l1.949 3.273c-2.429-0.043-3.707 1.931-3.723 1.957-0.117 0.188-0.059 0.434 0.127 0.551 0.067 0.041 0.14 0.061 0.213 0.061 0.134 0 0.263-0.067 0.34-0.187 0.054-0.086 1.115-1.701 3.185-1.574l-1.894 4.636-3.424-1.247c-0.691-0.251-1.459 0.105-1.714 0.799-0.252 0.694 0.107 1.46 0.8 1.713l4.603 1.676c0.15 0.055 0.305 0.081 0.457 0.081 0.516 0 1.006-0.302 1.223-0.802l1.088-2.492 0.745 1.937v5.281c0 0.738 0.598 1.336 1.336 1.336s1.336-0.598 1.336-1.336v-5.529c0-0.164-0.030-0.327-0.090-0.48l-1.063-2.765 0.631-1.547c1.26 0.233 2.449 0.099 3.507-0.413 2.136-1.032 3.676-3.532 4.595-7.402l0.471-0.453c0.417-0.401 0.432-1.056 0.047-1.483 0.32-0.907 0.714-1.47 1.327-2.129l8.763-2.316c0.172-0.045 0.303-0.189 0.33-0.365l0.718-4.544c0.019-0.118-0.009-0.238-0.079-0.335zM8.807 16.263l-0.723-1.211 1.403-0.462-0.68 1.673zM14.851 19.209c-0.956 0.462-1.941 0.513-2.848 0.371l1.863-4.574 1.712 0.697c0.13 0.053 0.267 0.079 0.403 0.079 0.27 0 0.538-0.103 0.74-0.299l1.96-1.885c-0.871 2.906-2.152 4.799-3.831 5.611z"></path>
</svg>
<svg id="frenzy-man-in-canoe" width="32" height="32" viewBox="0 0 32 32" x="288" y="48">
<path d="M13.36 10.564c1.279 0 2.317-1.037 2.317-2.317s-1.038-2.316-2.317-2.316-2.317 1.037-2.317 2.316c0 1.28 1.037 2.317 2.317 2.317z"></path>
<path d="M14.329 22.243c1.433-0.637 3.22-0.422 4.391 0.671l0.027-0.022c1.531-1.404 3.898-1.396 5.417 0.025 1.024-0.955 2.51-1.235 3.822-0.877 2.186-1.472 3.498-3.353 3.498-5.404 0-0.63-0.13-1.242-0.369-1.833-0.114-0.279-0.345-0.494-0.632-0.588s-0.6-0.055-0.856 0.104c-3.425 2.129-8.091 3.458-13.256 3.52l-2.042 4.403z"></path>
<path d="M31.698 23.742c-0.403-0.402-1.057-0.403-1.46 0-0.336 0.336-0.926 0.337-1.261 0.001-1.117-1.118-3.061-1.12-4.183 0.001-0.337 0.337-0.921 0.339-1.262-0.002-1.131-1.133-2.967-1.153-4.121-0.056l-0.061 0.058c-0.337 0.337-0.922 0.338-1.261-0.002-1.117-1.116-3.064-1.116-4.18 0.002-0.337 0.337-0.924 0.337-1.262-0.001-0.034-0.034-0.069-0.067-0.105-0.1l4.396-9.479 1.099-0.582c0.504-0.267 0.697-0.891 0.429-1.395-0.098-0.185-0.245-0.328-0.416-0.422l1.554-3.351c0.12-0.259 0.008-0.566-0.251-0.686-0.257-0.121-0.565-0.008-0.684 0.251l-1.802 3.887-2.418 1.28-1.962-1.531c-0.186-0.526-1.090-1.312-2.234-1.078-0.677 0.139-1.273 0.604-1.533 1.298l-1.727 4.61c-1.704-0.562-3.259-1.278-4.618-2.122-0.256-0.159-0.57-0.196-0.856-0.104s-0.519 0.308-0.632 0.587c-0.24 0.59-0.37 1.202-0.37 1.832 0 2.044 1.307 3.917 3.479 5.387 1.314-0.383 2.781-0.095 3.841 0.894 0.868-0.812 2.078-1.135 3.23-0.995l1.961-4.229c-0.677-0.066-1.342-0.154-1.995-0.263l1.256-3.353 1.418 1.106c0.185 0.144 0.409 0.218 0.635 0.218 0.165 0 0.331-0.039 0.483-0.12l0.608-0.322-3.776 8.143c-1.066-0.406-2.356-0.194-3.19 0.641-0.337 0.336-0.919 0.338-1.26-0.003-1.153-1.151-3.028-1.152-4.182 0-0.336 0.336-0.923 0.337-1.261 0-0.403-0.403-1.056-0.403-1.46-0-0.403 0.403-0.403 1.057 0 1.46 1.116 1.118 3.067 1.116 4.181 0.001 0.349-0.349 0.915-0.347 1.264 0.002 0.557 0.558 1.299 0.865 2.089 0.865s1.531-0.307 2.092-0.868c0.337-0.337 0.922-0.338 1.261 0.001 1.12 1.118 3.065 1.116 4.181 0 0.339-0.338 0.925-0.337 1.26-0.002 1.101 1.1 3.002 1.123 4.124 0.059l0.060-0.058c0.337-0.337 0.921-0.339 1.262 0.002 1.117 1.117 3.061 1.118 4.181-0.002 0.337-0.337 0.924-0.338 1.26 0.001 1.118 1.117 3.068 1.116 4.182-0.001 0.403-0.403 0.403-1.057 0-1.46z"></path>
</svg>
<svg id="frenzy-man-on-a-boat" width="32" height="32" viewBox="0 0 32 32" x="336" y="48">
<path d="M12.865 11.292c1.050 0.006 1.906-0.84 1.912-1.89s-0.842-1.905-1.892-1.911c-1.050-0.006-1.905 0.84-1.911 1.89s0.84 1.906 1.89 1.912z"></path>
<path d="M2.66 19.978l0.523 0.003c1.495-0.682 3.356-0.538 4.683 0.455 0.783-0.568 1.743-0.882 2.718-0.877 0.001 0 0.003 0 0.004 0 0.972 0.006 1.928 0.33 2.704 0.907 1.558-1.143 3.863-1.136 5.434 0.030 1.57-1.151 3.877-1.137 5.433 0.029 0.703-0.509 1.55-0.775 2.406-0.826l3.141-3.439c0.168-0.184 0.213-0.45 0.113-0.678-0.101-0.228-0.325-0.376-0.574-0.378l-5.058-0.028-5.124-4.265c-0.437-0.365-0.993-0.567-1.562-0.57l-0.774-0.004c-0.386-0.002-0.744 0.221-0.91 0.567-0.168 0.348-0.121 0.767 0.119 1.067l2.542 3.173-3.51-0.019 1.379-0.563c0.408-0.166 0.605-0.632 0.437-1.040-0.165-0.408-0.631-0.604-1.040-0.437l-1.434 0.586-1.592-1.258c-0.003-0.007-0.004-0.014-0.007-0.020-0.184-0.409-0.521-0.728-0.941-0.888l-0.009-0.004c-0.872-0.332-1.847 0.105-2.18 0.977l-0.995 2.612-4.72-0.026c-0.426-0.003-0.812 0.25-0.98 0.643l-1.199 2.79c-0.14 0.327-0.107 0.703 0.088 1.001s0.526 0.477 0.882 0.479zM16.723 11.403l0.774 0.004c0.324 0.002 0.639 0.117 0.888 0.325l4.131 3.437-2.684-0.015-3.109-3.751zM12.207 15.112l0.314-0.822 1.050 0.83-1.364-0.008z"></path>
<path d="M31.693 22.146c-0.413-0.419-1.087-0.421-1.505-0.009-0.335 0.332-0.882 0.328-1.212-0.006-1.114-1.127-3.095-1.138-4.219-0.026l-0.017 0.017c-0.324 0.305-0.88 0.295-1.196-0.022-1.119-1.135-3.085-1.147-4.22-0.023-0.325 0.321-0.888 0.318-1.211-0.007l-0.061-0.060c-1.123-1.072-3.048-1.062-4.162 0.039-0.32 0.317-0.887 0.316-1.209-0.008-0.553-0.559-1.319-0.882-2.103-0.886-0.001 0-0.002 0-0.003 0-0.787-0.004-1.558 0.311-2.116 0.864-0.32 0.317-0.888 0.316-1.208-0.009-1.123-1.134-3.087-1.142-4.218-0.024-0.34 0.333-0.885 0.328-1.214-0.006-0.414-0.416-1.087-0.421-1.505-0.007-0.417 0.413-0.421 1.087-0.007 1.504 1.157 1.167 3.050 1.179 4.221 0.023 0.325-0.322 0.889-0.318 1.21 0.006 1.122 1.136 3.087 1.144 4.219 0.024 0.159-0.159 0.381-0.249 0.608-0.248h0.001c0.224 0.001 0.442 0.093 0.606 0.258 0.561 0.566 1.308 0.879 2.102 0.884 0.798 0.004 1.547-0.302 2.117-0.865 0.322-0.319 0.889-0.315 1.208 0.006l0.063 0.061c1.125 1.079 3.044 1.065 4.159-0.035 0.328-0.323 0.889-0.32 1.211 0.006 1.122 1.136 3.088 1.143 4.22 0.024l0.015-0.016c0.326-0.306 0.882-0.299 1.198 0.023 1.157 1.168 3.050 1.176 4.22 0.022 0.417-0.412 0.421-1.086 0.009-1.504z"></path>
</svg>
<svg id="frenzy-man-swimming" width="32" height="32" viewBox="0 0 32 32" x="384" y="48">
<path d="M22.925 13.804c1.629-0.131 2.843-1.557 2.712-3.185s-1.557-2.843-3.186-2.712c-1.628 0.13-2.843 1.556-2.712 3.185s1.557 2.843 3.185 2.712z"></path>
<path d="M5.192 12.266l5.406-2.007 3.209 1.462-6.763 3.054c0.283 0.126 0.559 0.271 0.811 0.457 1.563-1.145 3.866-1.145 5.427 0.001 1.551-1.149 3.85-1.157 5.428-0.004 0.356-0.292 0.641-0.667 0.806-1.105 0.249-0.659 0.226-1.391-0.064-2.034-0.196-0.435-0.73-0.989-1.578-1.371-0.974-0.439-6.671-3.106-6.671-3.106-0.32-0.147-0.687-0.16-1.014-0.037l-5.92 2.198c-0.689 0.255-1.040 1.020-0.784 1.709s1.026 1.039 1.709 0.784z"></path>
<path d="M31.689 16.811c-0.416-0.417-1.090-0.416-1.505-0.001-0.334 0.334-0.88 0.333-1.212 0.001-1.121-1.122-3.098-1.124-4.222 0.001-0.322 0.322-0.885 0.322-1.209-0.001-1.125-1.129-3.091-1.13-4.22 0-0.324 0.323-0.887 0.323-1.211 0l-0.062-0.060c-1.128-1.066-3.053-1.044-4.162 0.062-0.318 0.319-0.885 0.32-1.209-0.002-1.109-1.112-3.111-1.113-4.222 0.001-0.318 0.32-0.886 0.322-1.208-0.002-1.129-1.127-3.093-1.125-4.218-0.001-0.338 0.335-0.883 0.333-1.214 0.001-0.416-0.414-1.089-0.416-1.505 0.001-0.415 0.415-0.415 1.089 0.001 1.504 1.163 1.161 3.056 1.162 4.221-0.001 0.324-0.323 0.889-0.321 1.209-0.002 1.126 1.13 3.094 1.13 4.22 0.002 0.318-0.32 0.888-0.323 1.214 0.003 0.564 0.562 1.313 0.872 2.107 0.872 0.798 0 1.546-0.31 2.111-0.877 0.322-0.321 0.889-0.321 1.209-0.001l0.063 0.060c1.131 1.073 3.050 1.048 4.159-0.058 0.326-0.325 0.887-0.325 1.211-0.001 1.128 1.13 3.093 1.129 4.221-0.001 0.32-0.32 0.887-0.322 1.211 0.003 1.163 1.162 3.056 1.159 4.22-0.001 0.415-0.415 0.415-1.088 0.001-1.504z"></path>
<path d="M24.866 22.029l-0.115 0.1c-0.32 0.321-0.888 0.319-1.208 0.001-1.125-1.13-3.090-1.131-4.221-0.002-0.324 0.325-0.887 0.324-1.211 0.001l-0.062-0.060c-1.128-1.066-3.053-1.044-4.162 0.062-0.318 0.319-0.885 0.32-1.209-0.002-1.117-1.12-3.099-1.121-4.221-0.001-0.319 0.32-0.887 0.321-1.208 0.001-0.414-0.416-1.087-0.417-1.504-0.002s-0.416 1.088-0.002 1.504c1.118 1.121 3.101 1.121 4.219 0.001 0.322-0.322 0.886-0.326 1.214 0.003 0.564 0.562 1.313 0.872 2.107 0.872 0.798 0 1.546-0.31 2.111-0.877 0.322-0.321 0.889-0.321 1.209-0.001l0.063 0.060c1.133 1.073 3.053 1.049 4.16-0.059 0.324-0.323 0.887-0.325 1.211 0.002 1.113 1.111 3.073 1.12 4.194 0.023 0.393-0.366 0.453-0.976 0.124-1.415-0.353-0.47-1.020-0.566-1.49-0.212z"></path>
</svg>
<svg id="frenzy-night-camping" width="32" height="32" viewBox="0 0 32 32" x="432" y="48">
<path d="M31.331 24.629l-3.807-3.81c-0.931-0.931-1.777-1.942-2.531-3.023l-8.369-12.009c-0.141-0.202-0.372-0.323-0.619-0.323s-0.478 0.121-0.618 0.323l-8.369 12.007c-0.754 1.081-1.602 2.094-2.535 3.026l-3.803 3.804c-0.558 0.559-0.79 1.366-0.61 2.135l1.042 4.475c0.080 0.341 0.384 0.583 0.734 0.583h11.374l2.786-14.431 2.786 14.431h11.372c0.35 0 0.654-0.241 0.734-0.583l1.042-4.471c0.179-0.769-0.051-1.576-0.609-2.134z"></path>
<path d="M3.946 7.889c1.208 0 2.285-0.545 3.008-1.401 0.053-0.063 0.063-0.151 0.026-0.224s-0.115-0.117-0.198-0.11c-0.089 0.007-0.18 0.011-0.271 0.011-2.179 0-3.946-1.767-3.946-3.946 0-0.626 0.149-1.216 0.409-1.741 0.036-0.074 0.026-0.162-0.028-0.223s-0.139-0.086-0.216-0.061c-1.583 0.513-2.73 1.996-2.73 3.75 0 2.179 1.767 3.946 3.946 3.946z"></path>
<path d="M10.165 2.981c0.026 0.025 0.039 0.061 0.032 0.096l-0.143 0.831c-0.007 0.041 0.009 0.082 0.043 0.107s0.078 0.027 0.115 0.008l0.746-0.393c0.032-0.017 0.069-0.017 0.102 0l0.746 0.393c0.037 0.019 0.082 0.016 0.115-0.008s0.051-0.066 0.043-0.107l-0.143-0.831c-0.006-0.035 0.006-0.071 0.032-0.096l0.603-0.589c0.029-0.029 0.041-0.072 0.027-0.111-0.012-0.039-0.047-0.068-0.088-0.074l-0.833-0.121c-0.036-0.005-0.066-0.027-0.082-0.060l-0.374-0.756c-0.018-0.037-0.056-0.061-0.097-0.061s-0.080 0.023-0.098 0.061l-0.374 0.756c-0.016 0.032-0.046 0.054-0.082 0.060l-0.833 0.121c-0.042 0.006-0.076 0.035-0.088 0.074s-0.002 0.083 0.027 0.111l0.603 0.589z"></path>
<path d="M21.816 3.69c0.026 0.025 0.037 0.061 0.032 0.096l-0.143 0.831c-0.007 0.041 0.009 0.082 0.044 0.107 0.033 0.024 0.078 0.027 0.115 0.008l0.746-0.393c0.032-0.017 0.069-0.017 0.102 0l0.746 0.393c0.037 0.019 0.082 0.016 0.115-0.008s0.051-0.066 0.043-0.107l-0.143-0.831c-0.005-0.035 0.006-0.071 0.032-0.096l0.603-0.589c0.029-0.029 0.039-0.072 0.027-0.111s-0.047-0.068-0.088-0.074l-0.833-0.121c-0.036-0.005-0.066-0.027-0.082-0.060l-0.374-0.756c-0.017-0.037-0.056-0.061-0.097-0.061s-0.080 0.023-0.098 0.061l-0.374 0.756c-0.016 0.032-0.046 0.054-0.082 0.060l-0.833 0.121c-0.041 0.006-0.076 0.035-0.088 0.074s-0.002 0.083 0.027 0.111l0.603 0.589z"></path>
<path d="M26.945 13.307c0.026 0.025 0.038 0.061 0.032 0.096l-0.143 0.831c-0.007 0.041 0.009 0.082 0.044 0.107 0.033 0.024 0.078 0.027 0.115 0.008l0.746-0.393c0.032-0.017 0.069-0.017 0.102 0l0.746 0.393c0.037 0.019 0.082 0.016 0.115-0.008s0.051-0.066 0.043-0.107l-0.143-0.831c-0.006-0.035 0.006-0.071 0.032-0.096l0.603-0.589c0.029-0.028 0.040-0.072 0.027-0.111-0.012-0.039-0.047-0.068-0.088-0.074l-0.833-0.121c-0.036-0.005-0.066-0.027-0.082-0.060l-0.374-0.756c-0.018-0.037-0.056-0.061-0.097-0.061s-0.080 0.023-0.098 0.061l-0.374 0.756c-0.016 0.032-0.046 0.054-0.082 0.060l-0.833 0.121c-0.042 0.006-0.076 0.035-0.088 0.074s-0.002 0.083 0.027 0.111l0.603 0.589z"></path>
</svg>
<svg id="frenzy-outdoor-rock" width="32" height="32" viewBox="0 0 32 32" x="480" y="48">
<path d="M24.292 16.403l-1.29-1.263-0.366 0.055 1.199 12.662-9.943-10.266-0.675-9.538 7.545 4.096 0.468-0.479-0.267-1.786c-0.008-0.049 0.003-0.097 0.001-0.145l-8.268-4.366c-0.486-0.257-1.070-0.242-1.543 0.038l-10.498 6.224c-0.333 0.201-0.537 0.561-0.537 0.949v12.541c0 0.483 0.246 0.932 0.653 1.192l8.629 5.509c0.177 0.114 0.384 0.174 0.595 0.174h15.584c0.478 0 0.853-0.411 0.808-0.887-0.313-3.313-1.379-14.354-1.379-14.354-0.266-0.057-0.518-0.162-0.717-0.356zM2.334 13.211l8.661-5.214 0.701 9.899-9.361 5.475v-10.16zM10.32 29.785l-6.969-4.443 9.552-5.586 9.719 10.030h-12.302z"></path>
<path d="M26.903 10.692c-0.013 0-0.026 0.001-0.039 0.003l-2.349 0.351c-0.020 0.003-0.039 0.004-0.058 0.004-0.103 0-0.202-0.040-0.277-0.113l-1.542-1.51c-0.066-0.064-0.152-0.098-0.24-0.098-0.053 0-0.106 0.012-0.156 0.037-0.131 0.067-0.204 0.21-0.183 0.356l0.319 2.135c0.018 0.123-0.022 0.247-0.108 0.335l-1.511 1.542c-0.103 0.105-0.128 0.264-0.060 0.395 0.059 0.115 0.177 0.187 0.304 0.187 0.017 0 0.035-0.001 0.052-0.004l2.135-0.319c0.020-0.003 0.039-0.004 0.058-0.004 0.103 0 0.202 0.040 0.277 0.113l1.542 1.51c0.066 0.064 0.152 0.098 0.24 0.098 0.053 0 0.106-0.012 0.156-0.037 0.131-0.067 0.204-0.21 0.183-0.356l-0.319-2.135c-0.018-0.123 0.022-0.247 0.108-0.335l1.662-1.697c0.081-0.083 0.101-0.208 0.047-0.311-0.046-0.091-0.141-0.147-0.241-0.147z"></path>
<path d="M19.332 3.584c0.062 0.081 0.082 0.187 0.054 0.285l-0.484 1.714c-0.034 0.117 0.012 0.242 0.112 0.31s0.233 0.065 0.33-0.008l1.42-1.075c0.082-0.062 0.187-0.082 0.285-0.054l1.716 0.484c0.117 0.033 0.241-0.012 0.31-0.112 0.068-0.101 0.065-0.233-0.009-0.33l-1.075-1.42c-0.062-0.081-0.082-0.187-0.054-0.285l0.532-1.887c0.026-0.092-0.010-0.19-0.089-0.244s-0.183-0.051-0.259 0.007l-1.563 1.183c-0.082 0.062-0.188 0.082-0.287 0.054l-1.714-0.484c-0.117-0.034-0.241 0.012-0.309 0.112s-0.066 0.233 0.008 0.33l1.075 1.42z"></path>
<path d="M28.663 2.015l-0.331 1.172c-0.023 0.080 0.009 0.165 0.077 0.213s0.159 0.044 0.225-0.006l0.972-0.735c0.056-0.042 0.129-0.056 0.196-0.037l1.172 0.331c0.080 0.023 0.166-0.008 0.212-0.077s0.044-0.159-0.005-0.225l-0.735-0.971c-0.042-0.056-0.056-0.128-0.037-0.196l0.364-1.29c0.017-0.063-0.007-0.13-0.061-0.167s-0.125-0.035-0.177 0.004l-1.070 0.809c-0.056 0.042-0.129 0.056-0.196 0.037l-1.172-0.331c-0.080-0.023-0.165 0.008-0.212 0.077s-0.045 0.159 0.005 0.225l0.735 0.971c0.042 0.056 0.056 0.128 0.037 0.196z"></path>
<path d="M31.771 8.314l-1.097-0.53c-0.063-0.030-0.107-0.089-0.121-0.157l-0.264-1.315c-0.013-0.064-0.065-0.113-0.13-0.121s-0.128 0.026-0.155 0.085l-0.583 1.208c-0.030 0.063-0.089 0.108-0.158 0.122l-1.195 0.239c-0.081 0.016-0.143 0.083-0.154 0.165s0.033 0.162 0.107 0.198l1.098 0.53c0.063 0.030 0.107 0.088 0.121 0.157l0.24 1.195c0.016 0.082 0.083 0.143 0.166 0.154s0.162-0.033 0.198-0.108l0.53-1.098c0.030-0.063 0.089-0.108 0.158-0.122l1.194-0.239c0.081-0.016 0.143-0.083 0.154-0.165s-0.032-0.162-0.108-0.198z"></path>
</svg>
<svg id="frenzy-outdoors-map" width="32" height="32" viewBox="0 0 32 32" x="528" y="48">
<path d="M13.278 10.143c-0.312-0.313-0.312-0.819 0-1.131s0.819-0.313 1.131 0l0.88 0.88 0.879-0.88c0.312-0.313 0.819-0.313 1.131 0s0.312 0.819 0 1.131l-0.506 0.506h6.231l-3.431-4.863-0.879 0.822c-0.102 0.097-0.246 0.141-0.386 0.118s-0.26-0.109-0.327-0.234l-1.84-3.411-4.35 7.569h1.972l-0.506-0.506z"></path>
<path d="M18.765 21.427c0-2.712 1.492-5.118 3.821-6.334-0.141-0.254-0.221-0.547-0.221-0.858 0-0.976 0.794-1.771 1.771-1.771h1.465v-10.731c0-0.957-0.776-1.733-1.733-1.733h-22.133c-0.957 0-1.733 0.776-1.733 1.733v28.533c0 0.957 0.776 1.733 1.733 1.733h22.133c0.957 0 1.733-0.776 1.733-1.733v-1.705c-3.796-0.167-6.835-3.298-6.835-7.135zM10.627 10.878l5.153-8.963c0.082-0.144 0.242-0.224 0.402-0.229 0.166 0.003 0.318 0.094 0.395 0.24l1.947 3.611 0.829-0.777c0.097-0.090 0.226-0.134 0.358-0.121s0.251 0.083 0.326 0.191l4.197 5.949c0.084 0.082 0.136 0.198 0.136 0.325 0 0.253-0.204 0.457-0.456 0.457-0.003 0-0.006-0.001-0.008 0h-6.946l0.34 0.34c0.312 0.313 0.312 0.819 0 1.131-0.156 0.156-0.361 0.234-0.566 0.234s-0.409-0.078-0.566-0.234l-0.879-0.88-0.88 0.88c-0.156 0.156-0.362 0.234-0.566 0.234s-0.409-0.078-0.565-0.234c-0.312-0.313-0.312-0.819 0-1.131l0.341-0.34h-2.596c-0.162 0-0.313-0.087-0.395-0.228-0.082-0.14-0.082-0.315-0.001-0.456zM8.89 15.196c0.294 0 0.531 0.238 0.533 0.531 0 0.295-0.237 0.534-0.531 0.535l-1.067 0.004c-0.002 0-0.002 0-0.002 0-0.142 0-0.279-0.057-0.379-0.157s-0.156-0.238-0.154-0.381l0.008-1.067c0.003-0.293 0.242-0.528 0.533-0.528 0.002 0 0.004 0 0.005 0 0.295 0.002 0.531 0.243 0.528 0.538l-0.004 0.527 0.527-0.002c-0 0 0.001 0 0.002 0zM7.321 12.025l0.024-2.637c0.003-0.293 0.241-0.529 0.533-0.529 0.001 0 0.003 0 0.005 0 0.294 0.002 0.531 0.244 0.528 0.538l-0.024 2.637c-0.002 0.293-0.241 0.529-0.533 0.529-0.001 0-0.002 0-0.004 0-0.295-0.003-0.531-0.244-0.529-0.538zM6.844 5.156h1.067c0.143 0 0.279 0.057 0.379 0.158s0.156 0.238 0.154 0.38l-0.008 1.067c-0.003 0.293-0.242 0.529-0.533 0.529-0.002 0-0.004 0-0.005 0-0.295-0.003-0.531-0.243-0.528-0.538l0.004-0.529h-0.529c-0.294 0-0.533-0.239-0.533-0.533s0.239-0.533 0.533-0.533zM6.337 21.956h2.517c0.295 0 0.533 0.239 0.533 0.533s-0.238 0.533-0.533 0.533h-2.517c-0.294 0-0.533-0.239-0.533-0.533s0.24-0.533 0.533-0.533zM2.223 5.689c0-0.295 0.237-0.533 0.533-0.533h1.066c0.294 0 0.533 0.239 0.533 0.533s-0.239 0.533-0.533 0.533h-0.533v0.533c0 0.295-0.24 0.533-0.533 0.533-0.296 0-0.533-0.239-0.533-0.533v-1.067zM2.223 8.851c0-0.295 0.237-0.533 0.533-0.533 0.294 0 0.533 0.239 0.533 0.533v2.095c0 0.295-0.24 0.533-0.533 0.533-0.296 0-0.533-0.239-0.533-0.533v-2.095zM2.223 13.041c0-0.295 0.237-0.533 0.533-0.533 0.294 0 0.533 0.239 0.533 0.533v2.095c0 0.295-0.24 0.533-0.533 0.533-0.296 0-0.533-0.239-0.533-0.533v-2.095zM2.223 17.232c0-0.295 0.237-0.533 0.533-0.533 0.294 0 0.533 0.238 0.533 0.533v2.095c0 0.295-0.24 0.533-0.533 0.533-0.296 0-0.533-0.239-0.533-0.533v-2.095zM2.223 22.489v-1.067c0-0.295 0.237-0.533 0.533-0.533 0.294 0 0.533 0.238 0.533 0.533v0.533h0.533c0.294 0 0.533 0.239 0.533 0.533s-0.239 0.533-0.533 0.533h-1.067c-0.296 0-0.533-0.239-0.533-0.533zM4.667 29.422c-1.055 0-1.91-0.856-1.91-1.911s0.855-1.911 1.91-1.911c1.056 0 1.911 0.856 1.911 1.911s-0.855 1.911-1.911 1.911zM10.002 28.045h-2.134c-0.295 0-0.533-0.238-0.533-0.533s0.239-0.533 0.533-0.533h2.134c0.294 0 0.533 0.239 0.533 0.533s-0.24 0.533-0.533 0.533zM10.696 16.257c-0.294 0-0.531-0.238-0.533-0.531 0-0.295 0.238-0.534 0.531-0.535l1.81-0.006c0.295 0 0.532 0.237 0.534 0.531 0 0.295-0.238 0.534-0.531 0.535l-1.808 0.006c-0 0-0.001 0-0.002 0zM10.836 22.489c0-0.295 0.238-0.533 0.533-0.533h2.516c0.296 0 0.533 0.239 0.533 0.533s-0.238 0.533-0.533 0.533h-2.516c-0.295 0-0.533-0.239-0.533-0.533zM14.269 28.045h-2.133c-0.296 0-0.533-0.238-0.533-0.533s0.238-0.533 0.533-0.533h2.133c0.295 0 0.533 0.239 0.533 0.533s-0.239 0.533-0.533 0.533zM15.38 16.241l-1.067 0.004c-0.001 0-0.001 0-0.002 0-0.294 0-0.532-0.237-0.533-0.531-0.001-0.295 0.237-0.534 0.531-0.535l0.518-0.002-0.024-0.758c-0.009-0.294 0.222-0.541 0.516-0.55 0.248-0.023 0.542 0.221 0.55 0.516l0.042 1.306c0.005 0.144-0.048 0.284-0.148 0.388s-0.239 0.162-0.382 0.163zM18.002 27.512c0 0.295-0.238 0.533-0.533 0.533h-1.066c-0.295 0-0.533-0.238-0.533-0.533s0.238-0.533 0.533-0.533h0.533v-0.533c0-0.295 0.239-0.533 0.533-0.533s0.533 0.239 0.533 0.533v1.067zM18.002 23.556c0 0.295-0.238 0.533-0.533 0.533s-0.533-0.238-0.533-0.533v-0.533h-0.533c-0.295 0-0.533-0.239-0.533-0.533s0.238-0.533 0.533-0.533h1.066c0.295 0 0.533 0.239 0.533 0.533v1.067z"></path>
<path d="M27.696 15.607v-0.668c0.39 0 0.704-0.315 0.704-0.704 0-0.389-0.315-0.704-0.704-0.704h-3.56c-0.39 0-0.704 0.316-0.704 0.704 0 0.39 0.315 0.704 0.704 0.704v0.668c-2.492 0.761-4.304 3.079-4.304 5.82 0 3.359 2.723 6.084 6.084 6.084 3.36 0 6.084-2.725 6.084-6.084 0-2.741-1.813-5.057-4.304-5.82zM25.916 26.612c-2.859 0-5.184-2.326-5.184-5.184 0-2.86 2.325-5.185 5.184-5.185s5.185 2.325 5.185 5.185c0 2.858-2.325 5.184-5.185 5.184z"></path>
<path d="M25.916 16.71c-2.601 0-4.715 2.117-4.715 4.717s2.115 4.715 4.715 4.715c2.6 0 4.716-2.115 4.716-4.715s-2.116-4.717-4.716-4.717zM28.438 21.743h-1.87l0.716 0.716c0.093 0.093 0.093 0.243 0 0.336-0.046 0.045-0.107 0.069-0.168 0.069-0.061 0-0.122-0.024-0.168-0.069l-0.717-0.716v1.869c0 0.175-0.141 0.317-0.316 0.317s-0.317-0.142-0.317-0.317v-1.869l-0.716 0.716c-0.046 0.045-0.106 0.069-0.168 0.069-0.060 0-0.122-0.024-0.168-0.069-0.093-0.093-0.093-0.243 0-0.336l0.716-0.716h-1.87c-0.175 0-0.317-0.141-0.317-0.316s0.142-0.318 0.317-0.318h1.87l-0.716-0.715c-0.094-0.093-0.094-0.243 0-0.336 0.092-0.092 0.243-0.092 0.335 0l0.716 0.716v-1.87c0-0.175 0.142-0.316 0.317-0.316s0.316 0.141 0.316 0.316v1.87l0.717-0.716c0.092-0.092 0.243-0.092 0.335 0s0.093 0.243 0 0.336l-0.717 0.715h1.871c0.175 0 0.317 0.143 0.317 0.318s-0.142 0.316-0.317 0.316z"></path>
</svg>
<svg id="frenzy-picket-fence" width="32" height="32" viewBox="0 0 32 32" x="576" y="48">
<path d="M31.335 11.834c0.367 0 0.665-0.298 0.665-0.665v-0.931c0-0.367-0.298-0.665-0.665-0.665h-0.501v-1.857c0-0.114-0.029-0.226-0.085-0.326l-1.559-2.778c-0.058-0.102-0.166-0.166-0.284-0.166s-0.225 0.064-0.283 0.166l-1.559 2.778c-0.056 0.1-0.085 0.211-0.085 0.326v1.857h-2.598v-1.857c0-0.114-0.029-0.226-0.085-0.326l-1.558-2.778c-0.058-0.102-0.166-0.166-0.284-0.166s-0.226 0.064-0.283 0.166l-1.56 2.778c-0.056 0.1-0.085 0.211-0.085 0.326v1.857h-2.597v-1.857c0-0.114-0.029-0.226-0.085-0.326l-1.558-2.778c-0.058-0.102-0.166-0.166-0.284-0.166s-0.226 0.064-0.283 0.166l-1.56 2.778c-0.056 0.1-0.085 0.211-0.085 0.326v1.857h-2.597v-1.857c0-0.114-0.029-0.226-0.085-0.326l-1.559-2.778c-0.057-0.102-0.165-0.166-0.284-0.166s-0.227 0.064-0.284 0.166l-1.559 2.778c-0.056 0.1-0.085 0.211-0.085 0.326v1.857h-2.597v-1.857c0-0.114-0.029-0.226-0.085-0.326l-1.56-2.778c-0.057-0.102-0.165-0.166-0.283-0.166s-0.227 0.064-0.285 0.166l-1.558 2.778c-0.056 0.1-0.085 0.211-0.085 0.326v1.857h-0.501c-0.368 0-0.665 0.298-0.665 0.665v0.931c0 0.367 0.297 0.665 0.665 0.665h0.501v10.504h-0.501c-0.368-0-0.665 0.298-0.665 0.665v0.931c0 0.367 0.297 0.665 0.665 0.665h0.501v2.29c0 0.367 0.297 0.665 0.665 0.665h2.526c0.367 0 0.665-0.298 0.665-0.665v-2.29h2.597v2.29c0 0.367 0.297 0.665 0.665 0.665h2.527c0.368 0 0.665-0.298 0.665-0.665v-2.29h2.597v2.29c0 0.367 0.298 0.665 0.665 0.665h2.526c0.368 0 0.665-0.298 0.665-0.665v-2.29h2.597v2.29c0 0.367 0.298 0.665 0.665 0.665h2.526c0.368 0 0.665-0.298 0.665-0.665v-2.29h2.598v2.29c0 0.367 0.298 0.665 0.665 0.665h2.526c0.367 0 0.665-0.298 0.665-0.665v-2.29h0.501c0.367 0 0.665-0.298 0.665-0.665v-0.931c0-0.367-0.298-0.665-0.665-0.665h-0.501v-10.504h0.501zM5.022 22.338v-10.504h2.597v10.504h-2.597zM11.475 22.338v-10.504h2.597v10.504h-2.597zM17.927 22.338v-10.504h2.597v10.504h-2.597zM26.979 22.338h-2.598v-10.504h2.598v10.504z"></path>
</svg>
<svg id="frenzy-picnic-desk" width="32" height="32" viewBox="0 0 32 32" x="624" y="48">
<path d="M30.409 17.866h-6.3l-1.554-2.441c-0.044 0.001-0.086 0.007-0.13 0.007h-3.637l1.551 2.434h-8.677l1.55-2.434h-3.636c-0.044 0-0.087-0.006-0.131-0.007l-1.554 2.441h-6.3c-0.879 0-1.591 0.712-1.591 1.59s0.712 1.59 1.591 1.59h4.274l-1.023 1.606c-0.472 0.741-0.254 1.724 0.487 2.196 0.265 0.169 0.561 0.249 0.853 0.249 0.526 0 1.040-0.26 1.343-0.736l2.111-3.315h12.728l2.11 3.315c0.303 0.476 0.818 0.736 1.344 0.736 0.292 0 0.587-0.080 0.852-0.249 0.74-0.472 0.96-1.454 0.488-2.196l-1.023-1.606h4.274c0.878 0 1.591-0.712 1.591-1.59s-0.712-1.59-1.59-1.59z"></path>
<path d="M9.576 12.251h12.849c1.478 0 2.675-1.197 2.675-2.674s-1.198-2.675-2.676-2.675h-12.848c-1.476 0-2.675 1.198-2.675 2.675s1.197 2.674 2.675 2.674z"></path>
</svg>
<svg id="frenzy-quad-bike" width="32" height="32" viewBox="0 0 32 32" x="672" y="48">
<path d="M15.499 6.744c1.352 0.221 2.627-0.695 2.848-2.047s-0.695-2.626-2.048-2.848c-1.35-0.221-2.626 0.695-2.847 2.046-0.221 1.352 0.696 2.627 2.047 2.849z"></path>
<path d="M14.241 22.55c0.048 0.336 0.081 0.677 0.081 1.026 0 0.319-0.026 0.631-0.064 0.94h2.138c0.001 0 0.002 0.001 0.003 0.001s0.003-0.001 0.004-0.001h1.339c-0.038-0.309-0.064-0.622-0.064-0.94 0-0.379 0.038-0.749 0.093-1.112 0.543-3.726 3.747-6.601 7.62-6.601 0.407 0 0.804 0.041 1.195 0.102v-1.229c0-0.591-0.254-1.153-0.697-1.543-0.391-0.344-0.895-0.513-1.409-0.501v-2.55l-0.003-0.073c-0.042-0.501-0.481-0.872-0.981-0.83l-2.506 0.209c-0.282-0.351-0.755-0.514-1.208-0.362l-3.011 1.013-1.82-1.97c-0.171-0.51-0.515-0.946-0.985-1.214-0.246-0.141-0.666-0.318-1.121-0.29-0.756 0.047-1.493 0.393-1.898 1.098 0 0-2.766 4.817-3.642 6.348-0.555 0.97-0.416 1.527-0.284 1.814 3.716 0.197 6.734 3.033 7.221 6.667zM16.444 12.478c0.118 0 0.236-0.019 0.352-0.058l3.689-1.241c0.238-0.080 0.415-0.244 0.547-0.437l1.238 0.386v1.822l-1.909 0.243c-0.853 0.108-1.547 0.736-1.743 1.573l-1.19 5.107-0.904-4.031c-0.149-0.663-0.687-1.167-1.357-1.274l-2.799-0.445 1.959-3.415 1.306 1.413c0.213 0.23 0.508 0.355 0.811 0.355z"></path>
<path d="M25.391 16.967c-3.644 0-6.608 2.965-6.608 6.608 0 0.714 0.118 1.401 0.328 2.045h-6.223c0.21-0.645 0.328-1.331 0.328-2.045 0-3.644-2.965-6.608-6.609-6.608s-6.608 2.965-6.608 6.608 2.964 6.608 6.608 6.608c2.023 0 3.835-0.916 5.049-2.353h8.686c1.213 1.437 3.025 2.353 5.049 2.353 3.644 0 6.609-2.964 6.609-6.608s-2.965-6.608-6.609-6.608zM6.608 25.764c-1.206 0-2.188-0.982-2.188-2.188s0.982-2.189 2.188-2.189c1.207 0 2.189 0.982 2.189 2.189s-0.982 2.188-2.189 2.188zM25.391 25.764c-1.206 0-2.188-0.982-2.188-2.188s0.982-2.189 2.188-2.189c1.207 0 2.189 0.982 2.189 2.189s-0.982 2.188-2.189 2.188z"></path>
</svg>
<svg id="frenzy-running-man" width="32" height="32" viewBox="0 0 32 32" x="720" y="48">
<path d="M18.297 5.227c1.444 0 2.614-1.17 2.614-2.614s-1.17-2.613-2.614-2.613c-1.442 0-2.613 1.17-2.613 2.613s1.171 2.614 2.613 2.614z"></path>
<path d="M25.899 12.201h-4.448l-2.509-3.561 0.008-0.061c0.090-0.68-0.095-1.368-0.514-1.913s-1.036-0.9-1.716-0.989c-0.707-0.092-1.464 0.202-2.019 0.559-0.093 0.060-5.499 3.554-5.499 3.554-0.335 0.217-0.553 0.574-0.593 0.972s0.102 0.791 0.387 1.070l3.817 3.753-0.415 3.168-1.211 4.244-4.388-1.255c-0.835-0.238-1.711 0.246-1.952 1.084-0.239 0.838 0.246 1.712 1.084 1.952l5.906 1.69c0.142 0.041 0.288 0.061 0.434 0.061 0.266 0 0.53-0.067 0.767-0.199 0.366-0.204 0.636-0.544 0.751-0.947l1.421-4.987 1.706 2.371 0.433 7.741c0.047 0.841 0.744 1.491 1.576 1.491 0.029 0 0.060-0.001 0.089-0.003 0.871-0.048 1.537-0.794 1.488-1.664l-0.458-8.201c-0.018-0.3-0.119-0.59-0.295-0.834l-2.086-2.9 0.774-5.907 1.256 1.783c0.246 0.35 0.647 0.558 1.075 0.558h5.13c0.726 0 1.315-0.589 1.315-1.316s-0.589-1.316-1.315-1.316zM13.241 12.319l-1.231-1.211 1.519-0.984-0.288 2.195z"></path>
</svg>
<svg id="frenzy-sailing-boat-sailing" width="32" height="32" viewBox="0 0 32 32" x="0" y="96">
<path d="M31.689 29.442c-0.416-0.416-1.090-0.415-1.505-0.001-0.334 0.334-0.88 0.333-1.212 0.001-0.931-0.932-2.447-1.079-3.58-0.461l2.051-4.683c0.124-0.281 0.085-0.607-0.099-0.853-0.186-0.245-0.488-0.371-0.792-0.33l-9.169 1.247v-23.121c0-0.587-0.476-1.063-1.064-1.063s-1.063 0.476-1.063 1.063v0.684l-11.898 17.967c-0.231 0.347-0.251 0.793-0.054 1.16 0.197 0.367 0.581 0.596 0.997 0.596h10.955v3.003l-9.472 1.288c-0.274 0.037-0.513 0.205-0.64 0.451s-0.128 0.538 0 0.783l0.802 1.542c-1.010-0.269-2.153-0.036-2.915 0.726-0.337 0.335-0.882 0.333-1.214 0.001-0.415-0.414-1.089-0.415-1.505 0.001-0.414 0.416-0.414 1.089 0.001 1.504 1.163 1.161 3.056 1.162 4.221-0.001 0.324-0.323 0.888-0.322 1.21-0.001 1.126 1.129 3.093 1.128 4.219 0.001 0.318-0.32 0.892-0.319 1.21-0.001l0.063 0.061c0.557 0.527 1.28 0.815 2.048 0.815 0.797 0 1.546-0.311 2.111-0.877 0.321-0.322 0.889-0.321 1.209-0.001l0.063 0.060c1.131 1.073 3.049 1.048 4.159-0.058 0.326-0.325 0.887-0.325 1.211-0.001 1.128 1.129 3.093 1.129 4.221-0.001 0.32-0.32 0.887-0.322 1.211 0.003 1.163 1.161 3.056 1.16 4.22-0.001 0.415-0.415 0.415-1.088 0.001-1.504z"></path>
<path d="M19.129 16.503h4.881c0.288 0 0.557-0.146 0.714-0.388 0.156-0.243 0.18-0.547 0.060-0.811l-5.893-13.065c-0.061-0.138-0.211-0.213-0.359-0.181s-0.252 0.162-0.252 0.313v13.282c0 0.469 0.38 0.85 0.849 0.85z"></path>
</svg>
<svg id="frenzy-signpost" width="32" height="32" viewBox="0 0 32 32" x="48" y="96">
<path d="M19.439 29.32h-2.111v-24.432c0.769-0.456 1.291-1.285 1.291-2.244 0-1.445-1.171-2.617-2.617-2.617s-2.617 1.172-2.617 2.617c0 0.959 0.52 1.789 1.29 2.244v24.432h-2.111c-0.734 0-1.327 0.594-1.327 1.327s0.593 1.327 1.327 1.327h6.876c0.732 0 1.327-0.594 1.327-1.327s-0.595-1.327-1.327-1.327z"></path>
<path d="M12.973 7h-9.808c-0.194 0-0.379 0.078-0.515 0.216l-2.441 2.475c-0.139 0.14-0.213 0.33-0.209 0.527 0.006 0.196 0.091 0.383 0.236 0.516l2.419 2.213c0.133 0.122 0.307 0.19 0.488 0.19h9.829v-6.136z"></path>
<path d="M31.792 16.829l-2.442-2.475c-0.136-0.138-0.321-0.216-0.515-0.216h-9.806v6.135h9.828c0.18 0 0.354-0.068 0.488-0.19l2.42-2.213c0.145-0.133 0.23-0.319 0.234-0.516s-0.071-0.387-0.207-0.527z"></path>
</svg>
<svg id="frenzy-skateboard" width="32" height="32" viewBox="0 0 32 32" x="96" y="96">
<path d="M31.904 11.691c-0.279-0.707-1.078-1.050-1.785-0.775l-4.157 1.64h-19.924l-4.157-1.64c-0.708-0.276-1.505 0.067-1.785 0.775-0.278 0.707 0.069 1.505 0.775 1.784l4.401 1.735c0.161 0.063 0.332 0.096 0.505 0.096h0.688c-0 0.057-0 0.119-0 0.189 0 0.608 0.492 1.1 1.1 1.1h0.688c-0.557 0.48-0.917 1.181-0.917 1.971 0 1.441 1.172 2.613 2.613 2.613s2.613-1.172 2.613-2.613c0-0.79-0.36-1.491-0.916-1.971h0.687c0.608 0 1.1-0.493 1.1-1.1 0-0.072-0-0.134-0-0.189h5.135c-0 0.055-0 0.117-0 0.189 0 0.608 0.492 1.1 1.1 1.1h0.688c-0.557 0.48-0.917 1.181-0.917 1.971 0 1.441 1.172 2.613 2.613 2.613s2.613-1.172 2.613-2.613c0-0.79-0.36-1.491-0.916-1.971h0.687c0.608 0 1.1-0.493 1.1-1.1 0-0.071-0-0.134-0-0.189h0.688c0.173 0 0.344-0.033 0.505-0.096l4.401-1.735c0.706-0.279 1.053-1.078 0.775-1.784zM9.949 19.529c-0.531 0-0.963-0.432-0.963-0.963s0.432-0.963 0.963-0.963 0.963 0.432 0.963 0.963c0 0.531-0.432 0.963-0.963 0.963zM22.052 19.529c-0.531 0-0.963-0.432-0.963-0.963s0.432-0.963 0.963-0.963c0.531 0 0.963 0.432 0.963 0.963s-0.432 0.963-0.963 0.963z"></path>
</svg>
<svg id="frenzy-ski-lift" width="32" height="32" viewBox="0 0 32 32" x="144" y="96">
<path d="M14.161 6.691c-1.252 0.468-1.888 1.864-1.419 3.116s1.865 1.888 3.116 1.42c1.254-0.469 1.887-1.864 1.418-3.116-0.468-1.253-1.862-1.888-3.115-1.419z"></path>
<path d="M27.616 21.552c-0.607-0.045-1.113 0.397-1.161 0.99l-0.183 2.312-1.98 1.329-2.969-4.434c-0.297-0.444-0.794-0.713-1.329-0.718l-3.115-0.030v-1.227c0.167 0.1 0.356 0.157 0.552 0.157 0.108 0 0.217-0.016 0.324-0.050l3.357-1.058c0.568-0.179 0.884-0.785 0.705-1.353s-0.782-0.884-1.354-0.704l-2.572 0.81-1.010-1.566v-0.919c0.001-1.188-0.947-2.152-2.149-2.152-1.964 0-2.207 1.591-2.207 2.162 0 0-0.001 7.205-0.001 7.476 0 0.894 0.709 1.625 1.602 1.634l4.984 0.048 2.496 3.728-3.037 2.039c-0.494 0.332-0.626 1.002-0.294 1.497 0.208 0.31 0.549 0.478 0.897 0.478 0.207 0 0.416-0.059 0.601-0.183l8.137-5.462c0.273-0.183 0.448-0.482 0.474-0.81l0.224-2.832c0.047-0.594-0.396-1.114-0.99-1.161z"></path>
<path d="M22.545 0.693c-0.213-0.556-0.835-0.835-1.394-0.621l-17.069 6.551c-0.556 0.213-0.834 0.837-0.621 1.394 0.164 0.429 0.573 0.693 1.007 0.693 0.129 0 0.259-0.023 0.387-0.072l4.469-1.715v15.999c0 2.576 2.097 4.673 4.674 4.673h3.559c0.596 0 1.079-0.483 1.079-1.079s-0.483-1.079-1.079-1.079h-3.559c-1.388 0-2.516-1.128-2.516-2.515v-16.828l10.442-4.008c0.556-0.213 0.835-0.838 0.621-1.394z"></path>
</svg>
<svg id="frenzy-sleeping-bag" width="32" height="32" viewBox="0 0 32 32" x="192" y="96">
<path d="M16.856 0h-1.712c-4.746 0-8.607 3.861-8.607 8.607v13.454l2.134-2.134v-11.319c0-3.569 2.904-6.473 6.473-6.473h1.712c3.569 0 6.473 2.904 6.473 6.473v5.126h2.134v-5.126c0-4.746-3.861-8.607-8.607-8.607z"></path>
<path d="M16.001 9.41c1.456 0 2.637-1.181 2.637-2.637s-1.181-2.637-2.637-2.637c-1.457 0-2.638 1.181-2.638 2.637s1.181 2.637 2.638 2.637z"></path>
<path d="M12.652 10.962l-2.447 7.432 3.915-3.916c0.479-0.48 1.117-0.744 1.795-0.744h4.346l-0.913-2.771c-0.167-0.504-0.67-0.699-1.183-0.699-1.080 0-3.224 0-4.332 0-0.515 0-1.015 0.195-1.182 0.699z"></path>
<path d="M14.108 22.834c0.076 0 0.139-0.062 0.139-0.139v-6.082l-6.22 6.221h6.081z"></path>
<path d="M15.847 15.347v7.348c0 0.959-0.78 1.739-1.739 1.739h-7.57v4.965c0 1.437 1.165 2.601 2.601 2.601h13.723c1.436 0 2.6-1.164 2.6-2.601v-14.066h-9.547c-0.024 0-0.045 0.012-0.068 0.014z"></path>
</svg>
<svg id="frenzy-snowed-mountains" width="32" height="32" viewBox="0 0 32 32" x="240" y="96">
<path d="M31.684 25.635c-2.392-3.37-9.728-13.791-9.728-13.791-0.176-0.25-0.453-0.412-0.757-0.443-0.306-0.029-0.608 0.071-0.831 0.28l-1.922 1.799-4.511-8.372c-0.183-0.338-0.533-0.551-0.918-0.556-0.377-0.017-0.741 0.198-0.932 0.531l-11.945 20.779c-0.188 0.328-0.187 0.731 0.001 1.058 0.19 0.327 0.54 0.528 0.917 0.528h29.863c0.007-0.001 0.015-0.001 0.020 0 0.585 0 1.058-0.474 1.058-1.058 0-0.296-0.158-0.532-0.316-0.756zM18.891 15.965l2.036-1.907 4.048 5.739-3.435-3.578c-0.056-0.057-0.132-0.091-0.213-0.092-0.078-0.001-0.156 0.031-0.213 0.087l-2.45 2.446c-0.085 0.085-0.213 0.111-0.325 0.064s-0.184-0.155-0.183-0.275l0.009-2.225c0.265 0 0.525-0.076 0.723-0.261zM12.973 7.786l2.626 4.873-1.972 1.739c-0.061 0.054-0.143 0.081-0.223 0.073-0.082-0.007-0.157-0.048-0.207-0.112l-1.264-1.604c-0.060-0.076-0.153-0.118-0.249-0.113-0.097 0.005-0.186 0.057-0.237 0.139l-1.911 3.047c-0.060 0.095-0.168 0.148-0.279 0.138s-0.209-0.083-0.25-0.187l-0.256-0.649 4.222-7.345z"></path>
</svg>
<svg id="frenzy-spyglass" width="32" height="32" viewBox="0 0 32 32" x="288" y="96">
<path d="M5.293 21.185c-0.424-0.208-0.744-0.569-0.897-1.016s-0.123-0.928 0.084-1.353c0.133-0.272 0.020-0.6-0.252-0.734-0.271-0.132-0.6-0.019-0.734 0.252-0.694 1.421-0.105 3.142 1.316 3.837 0.078 0.038 0.161 0.056 0.241 0.056 0.202 0 0.397-0.113 0.494-0.308 0.133-0.272 0.019-0.6-0.253-0.734z"></path>
<path d="M31.379 16.928c-0.319-0.654-0.752-1.22-1.254-1.703 0 0-4.094-5.21-5.404-6.991-1.198-1.629-3.242-2.422-5.093-1.517-1.85 0.905-2.655 3.064-1.929 4.951l0.578 2.244h-4.556l0.577-2.244c0.727-1.887-0.077-4.045-1.929-4.951-1.85-0.905-3.87-0.094-5.091 1.517-1.464 1.931-5.405 6.991-5.405 6.991-0.502 0.484-0.934 1.049-1.255 1.703-0.711 1.456-0.814 3.102-0.288 4.635s1.618 2.769 3.073 3.482c0.839 0.41 1.735 0.618 2.663 0.618 2.338 0 4.427-1.304 5.454-3.403 0.241-0.494 0.403-1.006 0.501-1.521l3.095 1.374c0.561 0.249 1.202 0.249 1.763 0l3.094-1.374c0.098 0.516 0.259 1.027 0.502 1.521 1.026 2.099 3.118 3.403 5.455 3.403v0c0.928 0 1.823-0.208 2.662-0.618 1.456-0.712 2.547-1.949 3.073-3.482s0.423-3.179-0.289-4.635zM9.551 21.296c-0.656 1.34-1.991 2.173-3.483 2.173-0.591 0-1.163-0.133-1.699-0.395-0.93-0.455-1.626-1.244-1.963-2.223-0.335-0.979-0.27-2.029 0.184-2.958 0.656-1.34 1.991-2.173 3.484-2.173 0.591 0 1.163 0.133 1.699 0.395 1.918 0.938 2.716 3.263 1.777 5.181zM16 19.351c-0.832 0-1.508-0.675-1.508-1.509s0.676-1.508 1.508-1.508c0.833 0 1.508 0.675 1.508 1.508s-0.675 1.509-1.508 1.509zM29.592 20.851c-0.335 0.979-1.033 1.768-1.962 2.223-0.537 0.262-1.107 0.395-1.698 0.395-1.493 0-2.828-0.833-3.484-2.173-0.938-1.919-0.141-4.243 1.778-5.181 0.536-0.262 1.107-0.395 1.698-0.395 1.492 0 2.827 0.833 3.483 2.173 0.455 0.929 0.52 1.98 0.184 2.958z"></path>
<path d="M27.771 18.082c-0.272 0.133-0.385 0.462-0.252 0.734 0.208 0.425 0.238 0.905 0.084 1.353s-0.472 0.808-0.898 1.016c-0.272 0.134-0.384 0.462-0.251 0.734 0.094 0.194 0.289 0.308 0.493 0.308 0.081 0 0.163-0.018 0.24-0.056 1.421-0.695 2.012-2.416 1.316-3.837-0.134-0.272-0.461-0.385-0.734-0.252z"></path>
</svg>
<svg id="frenzy-sunny-park" width="32" height="32" viewBox="0 0 32 32" x="336" y="96">
<path d="M20.507 25.398c-0.277-0.273-0.65-0.426-1.038-0.426h-1.308v-0.846h1.098c0.353 0 0.639-0.286 0.639-0.639v-0.835c0-0.353-0.286-0.639-0.639-0.639h-1.098v-1.093h1.098c0.353 0 0.639-0.286 0.639-0.639v-0.835c0-0.353-0.286-0.639-0.639-0.639h-1.098v-0.826c0-0.59-0.478-1.069-1.068-1.069s-1.069 0.478-1.069 1.069v0.826h-9.618v-0.826c0-0.59-0.478-1.069-1.068-1.069s-1.069 0.478-1.069 1.069v0.826h-1.098c-0.353 0-0.639 0.286-0.639 0.639v0.835c0 0.353 0.286 0.639 0.639 0.639h1.098v1.093h-1.098c-0.353 0-0.639 0.286-0.639 0.639v0.835c0 0.353 0.286 0.639 0.639 0.639h1.098v0.846h-1.309c-0.388 0-0.762 0.153-1.038 0.426l-1.665 1.643c-0.184 0.182-0.24 0.457-0.142 0.697s0.332 0.396 0.591 0.396h1.426v2.671c0 0.59 0.478 1.069 1.069 1.069s1.069-0.479 1.069-1.069v-2.672h13.892v2.672c0 0.59 0.478 1.069 1.069 1.069s1.069-0.479 1.069-1.069v-2.672h1.425c0.259 0 0.493-0.156 0.591-0.396s0.042-0.515-0.142-0.697l-1.665-1.643zM6.406 20.92h9.618v1.093h-9.618v-1.093zM6.406 24.126h9.618v0.846h-9.618v-0.846z"></path>
<path d="M6.272 0.161c0-0.002-0.002-0.004-0.004-0.004h-5.628c-0.353 0-0.639 0.286-0.639 0.639v5.539c0 0.003-0.001 0.005-0.001 0.010 0.026 0 0.052 0.007 0.080 0.007 3.419 0 6.191-2.772 6.191-6.191z"></path>
<path d="M0.218 8.118v5.22c0 0.443 0.359 0.802 0.801 0.802s0.802-0.359 0.802-0.802v-5.22c0-0.442-0.359-0.801-0.801-0.801s-0.801 0.359-0.801 0.801z"></path>
<path d="M4.122 6.485c-0.383 0.221-0.514 0.711-0.293 1.095l2.611 4.522c0.148 0.257 0.418 0.401 0.695 0.401 0.136 0 0.273-0.034 0.4-0.107 0.383-0.221 0.515-0.711 0.293-1.095l-2.611-4.522c-0.221-0.382-0.709-0.516-1.095-0.293z"></path>
<path d="M6.687 5.307l4.522 2.611c0.126 0.073 0.264 0.107 0.4 0.107 0.277 0 0.547-0.144 0.695-0.401 0.221-0.383 0.090-0.873-0.293-1.095l-4.522-2.611c-0.384-0.223-0.875-0.090-1.095 0.293-0.221 0.383-0.090 0.873 0.293 1.095z"></path>
<path d="M8.027 1.913l5.221-0.001c0.442 0 0.802-0.359 0.802-0.801s-0.359-0.801-0.802-0.801l-5.221 0.001c-0.442 0-0.801 0.359-0.801 0.801s0.359 0.801 0.801 0.801z"></path>
<path d="M28.56 0.127c-1.346 0-2.509 1.679-3.073 4.118 1.874 0.692 3.256 2.883 3.412 5.64 1.080 0.607 1.842 1.674 2.108 2.921 0.613-1.345 0.992-3.192 0.992-5.231-0-4.113-1.541-7.448-3.44-7.448z"></path>
<path d="M27.492 26.003c0 0.353 0.286 0.639 0.639 0.639h0.86c0.353 0 0.639-0.286 0.639-0.639v-8.876c-0.595 0.536-1.326 0.896-2.137 1.015v7.861z"></path>
<path d="M27.834 10.577c0.001-0.056 0.012-0.109 0.012-0.165 0-2.954-1.615-5.349-3.607-5.349s-3.606 2.395-3.606 5.349c0 0.695 0.096 1.354 0.259 1.962-0.882 0.557-1.461 1.478-1.461 2.525 0 1.702 1.525 3.082 3.406 3.082 0.082 0 0.159-0.020 0.24-0.026v8.048c0 0.353 0.286 0.639 0.639 0.639h1.889c0.353 0 0.639-0.286 0.639-0.639v-8.956c0.215 0.054 0.437 0.089 0.668 0.089 1.733 0 3.139-1.505 3.139-3.362 0-1.509-0.936-2.772-2.215-3.197z"></path>
</svg>
<svg id="frenzy-surfer-surfing" width="32" height="32" viewBox="0 0 32 32" x="384" y="96">
<path d="M16.955 7.151c1.298-0.229 2.167-1.467 1.937-2.766s-1.467-2.165-2.766-1.936c-1.297 0.229-2.165 1.466-1.936 2.765s1.467 2.166 2.765 1.937z"></path>
<path d="M27.522 23.491c-0.064-0.763-2.779-1.199-6.691-1.198l0.058-6.17c0.004-0.463-0.193-0.904-0.54-1.21-0.346-0.305-0.805-0.445-1.267-0.386l-2.715 0.362 0.836-4.493 4.572-1.546c0.242-0.081 0.446-0.248 0.575-0.467l2.13-3.615c0.299-0.506 0.13-1.158-0.376-1.456s-1.159-0.13-1.456 0.376l-1.93 3.274-3.172 1.072-2.521-0.385c-0.15-0.023-0.303-0.024-0.454-0.004l-5.126 0.694c-0.197 0.026-0.382 0.108-0.536 0.234l-3.294 2.726c-0.452 0.375-0.516 1.045-0.141 1.498 0.211 0.254 0.514 0.385 0.819 0.385 0.239 0 0.48-0.080 0.678-0.244l3.060-2.533 2.915-0.396-1.076 5.776-2.941 1.333c-0.74 0.334-1.109 1.172-0.86 1.944l1.366 4.226c-2.764 0.49-4.838 1.097-5.674 1.684 1.361-0.407 2.921-0.197 4.088 0.658 0.781-0.578 1.724-0.892 2.716-0.892 0.001 0 0.003 0 0.005 0 0.988 0 1.93 0.313 2.711 0.891 1.568-1.161 3.869-1.157 5.434 0 1.398-1.034 3.378-1.137 4.898-0.327 2.439-0.571 3.957-1.227 3.907-1.812zM17.64 22.38c-0.769 0.041-1.561 0.094-2.373 0.163-0.906 0.077-1.783 0.169-2.63 0.273l-1.092-3.379 2.146-0.972 3.99-0.533-0.041 4.448z"></path>
<path d="M31.689 27.208c-0.416-0.416-1.088-0.416-1.504-0.001-0.334 0.335-0.88 0.334-1.214 0.001-1.128-1.129-3.088-1.131-4.22 0.002-0.32 0.321-0.888 0.321-1.21-0.002-1.125-1.127-3.090-1.128-4.22 0.001-0.318 0.318-0.891 0.32-1.213-0.002-1.126-1.127-3.088-1.131-4.221 0.003-0.314 0.315-0.867 0.323-1.192 0.016l-0.019-0.018c-0.563-0.564-1.312-0.874-2.106-0.874-0.001 0-0.002 0-0.003 0-0.798 0-1.547 0.311-2.11 0.875-0.323 0.323-0.884 0.325-1.209-0.001-1.119-1.12-3.104-1.117-4.218-0.001-0.334 0.334-0.88 0.334-1.215 0.001-0.416-0.415-1.089-0.415-1.504 0.001-0.414 0.416-0.414 1.089 0.002 1.504 1.161 1.161 3.056 1.16 4.221-0.001 0.32-0.321 0.889-0.321 1.209-0.001 1.126 1.128 3.091 1.13 4.219 0.002 0.162-0.162 0.376-0.251 0.606-0.251 0 0 0 0 0.001 0 0.219 0 0.426 0.083 0.585 0.233l0.021 0.021c0.557 0.555 1.324 0.873 2.108 0.873 0.797 0 1.546-0.31 2.113-0.877 0.32-0.32 0.886-0.323 1.211 0.002 1.11 1.111 3.111 1.111 4.219 0.001 0.325-0.325 0.888-0.325 1.211-0.002 1.127 1.129 3.093 1.13 4.221-0.001 0.324-0.323 0.884-0.325 1.211 0.003 1.163 1.161 3.058 1.161 4.219-0.001 0.417-0.415 0.417-1.088 0.002-1.504z"></path>
</svg>
<svg id="frenzy-swimming-pool-ladder" width="32" height="32" viewBox="0 0 32 32" x="432" y="96">
<path d="M12.809 17.046v-2.161h6.381v2.155c0.964-0.533 2.113-0.688 3.191-0.469v-12.772c0-0.881-0.715-1.595-1.595-1.595s-1.595 0.714-1.595 1.595v2.579h-6.381v-2.579c0-0.881-0.715-1.595-1.595-1.595s-1.595 0.714-1.595 1.595v12.781c1.078-0.216 2.228-0.061 3.191 0.467zM19.191 8.504v4.254h-6.381v-4.254h6.381z"></path>
<path d="M4.533 20.414c0.324-0.323 0.887-0.323 1.211 0.001 1.128 1.127 3.092 1.126 4.218 0 0.318-0.32 0.892-0.319 1.21-0.002l0.063 0.061c0.557 0.527 1.281 0.815 2.048 0.815 0.798 0 1.546-0.31 2.112-0.877 0.321-0.321 0.888-0.321 1.209-0l0.064 0.060c1.131 1.073 3.049 1.048 4.158-0.058 0.326-0.325 0.887-0.325 1.211-0.001 1.128 1.129 3.093 1.129 4.221-0.001 0.32-0.32 0.887-0.322 1.211 0.003 1.163 1.161 3.057 1.159 4.22-0 0.416-0.415 0.416-1.089 0.001-1.504-0.416-0.417-1.089-0.416-1.505-0.001-0.334 0.334-0.88 0.333-1.212 0.001-1.121-1.121-3.098-1.124-4.222 0.001-0.322 0.322-0.885 0.322-1.209-0.001-1.125-1.128-3.091-1.13-4.22 0-0.324 0.323-0.887 0.323-1.211 0l-0.062-0.060c-1.128-1.066-3.054-1.044-4.162 0.062-0.318 0.319-0.886 0.32-1.208-0.002l-0.061-0.059c-1.12-1.058-3.070-1.034-4.162 0.060-0.318 0.319-0.886 0.32-1.208-0.001-1.128-1.128-3.092-1.126-4.218-0.002-0.338 0.335-0.883 0.333-1.214 0-0.415-0.415-1.089-0.416-1.505 0.001-0.414 0.415-0.414 1.089 0.001 1.504 1.164 1.161 3.056 1.162 4.221-0.001z"></path>
<path d="M30.184 23.163c-0.334 0.334-0.88 0.333-1.212 0.001-1.121-1.121-3.098-1.124-4.222 0.001-0.322 0.322-0.885 0.322-1.209-0.001-1.125-1.129-3.091-1.13-4.22 0-0.324 0.323-0.887 0.323-1.211 0l-0.062-0.060c-1.128-1.065-3.054-1.045-4.162 0.062-0.318 0.319-0.886 0.32-1.208-0.002l-0.061-0.059c-1.12-1.058-3.070-1.034-4.162 0.060-0.318 0.319-0.886 0.32-1.208-0.001-1.128-1.128-3.092-1.126-4.218-0.002-0.338 0.335-0.883 0.333-1.214 0-0.415-0.414-1.089-0.415-1.505 0.001-0.414 0.415-0.414 1.089 0.001 1.504 1.163 1.161 3.056 1.162 4.221-0.001 0.324-0.323 0.887-0.324 1.211 0.001 1.128 1.127 3.092 1.126 4.218 0 0.318-0.32 0.892-0.319 1.21-0.002l0.063 0.061c0.557 0.526 1.281 0.815 2.048 0.815 0.798 0 1.546-0.311 2.112-0.877 0.321-0.321 0.888-0.321 1.209-0l0.064 0.060c1.131 1.073 3.049 1.049 4.158-0.058 0.326-0.325 0.887-0.325 1.211-0.001 1.128 1.129 3.093 1.129 4.221-0.001 0.32-0.32 0.887-0.322 1.211 0.003 1.163 1.162 3.057 1.159 4.22-0 0.416-0.415 0.416-1.089 0.001-1.504-0.415-0.416-1.089-0.416-1.505-0.001z"></path>
<path d="M30.184 27.418c-0.334 0.334-0.88 0.333-1.212 0.001-1.121-1.121-3.098-1.124-4.222 0.001-0.322 0.322-0.885 0.322-1.209-0.001-1.125-1.128-3.091-1.13-4.22 0-0.324 0.323-0.887 0.323-1.211 0l-0.062-0.060c-1.128-1.065-3.054-1.045-4.162 0.062-0.318 0.318-0.886 0.321-1.208-0.002l-0.061-0.059c-1.12-1.058-3.070-1.033-4.162 0.060-0.318 0.318-0.886 0.32-1.208-0.001-1.128-1.128-3.092-1.126-4.218-0.002-0.338 0.335-0.883 0.333-1.214 0.001-0.415-0.415-1.089-0.416-1.505 0.001-0.414 0.415-0.414 1.089 0.001 1.504 1.163 1.161 3.056 1.162 4.221-0 0.324-0.323 0.887-0.323 1.211 0 1.128 1.127 3.092 1.125 4.218 0 0.318-0.32 0.892-0.319 1.21-0.001l0.063 0.061c0.557 0.527 1.281 0.815 2.048 0.815 0.798 0 1.546-0.311 2.112-0.877 0.321-0.321 0.888-0.321 1.209-0l0.064 0.060c1.131 1.072 3.049 1.049 4.158-0.058 0.326-0.325 0.887-0.325 1.211-0.001 1.128 1.13 3.093 1.128 4.221-0.001 0.32-0.32 0.887-0.322 1.211 0.003 1.163 1.162 3.057 1.159 4.22-0.001 0.416-0.415 0.416-1.088 0.001-1.504-0.415-0.417-1.089-0.416-1.505-0.001z"></path>
</svg>
<svg id="frenzy-swings" width="32" height="32" viewBox="0 0 32 32" x="480" y="96">
<path d="M30.396 4.992h-28.791c-0.886 0-1.605 0.718-1.605 1.604s0.719 1.605 1.605 1.605h1.293v17.738c0 0.591 0.478 1.070 1.069 1.070s1.070-0.479 1.070-1.070v-17.738h2.942v0.535c0 0.296 0.238 0.535 0.535 0.535 0.294 0 0.535-0.239 0.535-0.535v-0.535h3.209v0.535c0 0.296 0.238 0.535 0.535 0.535 0.294 0 0.535-0.239 0.535-0.535v-0.535h5.348v0.535c0 0.296 0.238 0.535 0.535 0.535 0.294 0 0.535-0.239 0.535-0.535v-0.535h3.209v0.535c0 0.296 0.238 0.535 0.535 0.535 0.295 0 0.535-0.239 0.535-0.535v-0.535h2.941v17.738c0 0.591 0.478 1.070 1.070 1.070s1.070-0.479 1.070-1.070v-17.738h1.292c0.887 0 1.604-0.718 1.604-1.604s-0.718-1.604-1.604-1.604z"></path>
<path d="M7.978 15.153c0 0.296 0.238 0.535 0.535 0.535 0.294 0 0.535-0.239 0.535-0.535v-1.070c0-0.296-0.24-0.535-0.535-0.535-0.297 0-0.535 0.239-0.535 0.535v1.070z"></path>
<path d="M8.513 12.479c0.294 0 0.535-0.239 0.535-0.535v-1.070c0-0.296-0.24-0.535-0.535-0.535-0.297 0-0.535 0.239-0.535 0.535v1.070c-0 0.296 0.238 0.535 0.535 0.535z"></path>
<path d="M7.978 18.362c0 0.296 0.238 0.535 0.535 0.535 0.294 0 0.535-0.239 0.535-0.535v-1.070c0-0.296-0.24-0.535-0.535-0.535-0.297 0-0.535 0.239-0.535 0.535v1.070z"></path>
<path d="M12.792 12.479c0.294 0 0.535-0.239 0.535-0.535v-1.070c0-0.296-0.24-0.535-0.535-0.535-0.297 0-0.535 0.239-0.535 0.535v1.070c0 0.296 0.238 0.535 0.535 0.535z"></path>
<path d="M12.257 15.153c0 0.296 0.238 0.535 0.535 0.535 0.294 0 0.535-0.239 0.535-0.535v-1.070c0-0.296-0.24-0.535-0.535-0.535-0.297 0-0.535 0.239-0.535 0.535v1.070z"></path>
<path d="M12.257 18.362c0 0.296 0.238 0.535 0.535 0.535 0.294 0 0.535-0.239 0.535-0.535v-1.070c0-0.296-0.24-0.535-0.535-0.535-0.297 0-0.535 0.239-0.535 0.535v1.070z"></path>
<path d="M13.605 21.392h-0.278v-0.891c0-0.296-0.24-0.535-0.535-0.535-0.297 0-0.535 0.239-0.535 0.535v0.891h-3.209v-0.891c0-0.296-0.24-0.535-0.535-0.535-0.297 0-0.535 0.239-0.535 0.535v0.891h-0.278c-0.443 0-0.802 0.359-0.802 0.802s0.359 0.802 0.802 0.802h5.904c0.443 0 0.802-0.359 0.802-0.802s-0.359-0.802-0.802-0.802z"></path>
<path d="M18.675 18.362c0 0.296 0.238 0.535 0.535 0.535 0.294 0 0.535-0.239 0.535-0.535v-1.070c0-0.296-0.24-0.535-0.535-0.535-0.297 0-0.535 0.239-0.535 0.535v1.070z"></path>
<path d="M18.675 15.153c0 0.296 0.238 0.535 0.535 0.535 0.294 0 0.535-0.239 0.535-0.535v-1.070c0-0.296-0.24-0.535-0.535-0.535-0.297 0-0.535 0.239-0.535 0.535v1.070z"></path>
<path d="M19.21 12.479c0.294 0 0.535-0.239 0.535-0.535v-1.070c0-0.296-0.24-0.535-0.535-0.535-0.297 0-0.535 0.239-0.535 0.535v1.070c-0 0.296 0.238 0.535 0.535 0.535z"></path>
<path d="M23.488 12.479c0.295 0 0.535-0.239 0.535-0.535v-1.070c0-0.296-0.24-0.535-0.535-0.535-0.297 0-0.535 0.239-0.535 0.535v1.070c0 0.296 0.238 0.535 0.535 0.535z"></path>
<path d="M22.953 18.362c0 0.296 0.238 0.535 0.535 0.535 0.295 0 0.535-0.239 0.535-0.535v-1.070c0-0.296-0.24-0.535-0.535-0.535-0.297 0-0.535 0.239-0.535 0.535v1.070z"></path>
<path d="M22.953 15.153c0 0.296 0.238 0.535 0.535 0.535 0.295 0 0.535-0.239 0.535-0.535v-1.070c0-0.296-0.24-0.535-0.535-0.535-0.297 0-0.535 0.239-0.535 0.535v1.070z"></path>
<path d="M24.301 21.392h-0.278v-0.891c0-0.296-0.24-0.535-0.535-0.535-0.297 0-0.535 0.239-0.535 0.535v0.891h-3.209v-0.891c0-0.296-0.24-0.535-0.535-0.535-0.297 0-0.535 0.239-0.535 0.535v0.891h-0.278c-0.443 0-0.802 0.359-0.802 0.802s0.359 0.802 0.802 0.802h5.904c0.443 0 0.802-0.359 0.802-0.802s-0.359-0.802-0.802-0.802z"></path>
</svg>
<svg id="frenzy-swiss-pocket-knife" width="32" height="32" viewBox="0 0 32 32" x="528" y="96">
<path d="M26.533 20.694h-14.977l0.323-0.534c0.47-0.775 1.248-1.312 2.14-1.477s1.81 0.060 2.525 0.618c0.306 0.237 0.744 0.184 0.981-0.119l3.863-4.925c1.932-2.462 1.502-6.024-0.96-7.956-0.154-0.12-0.348-0.174-0.541-0.151-0.193 0.024-0.369 0.122-0.489 0.276l-11.196 14.268h-2.745l0.455-1.328 2.99-1.463c0.529-0.259 0.749-0.898 0.49-1.427l-1.188-2.43 2.429-1.188c0.529-0.259 0.748-0.898 0.49-1.427l-1.189-2.43 2.428-1.188c0.529-0.259 0.749-0.898 0.489-1.427l-1.547-3.164 0.243-2.431c0.015-0.139-0.050-0.281-0.176-0.36-0.178-0.113-0.414-0.059-0.525 0.119l-1.618 2.57c-0.117 0.187-0.139 0.429-0.035 0.641l0.085 0.174 1.188 2.43-2.428 1.188c-0.529 0.259-0.749 0.898-0.489 1.427l1.189 2.43-2.429 1.188c-0.529 0.259-0.749 0.898-0.49 1.427l1.188 2.43-2.429 1.188c-0.244 0.12-0.445 0.334-0.54 0.612l-0.837 2.439h-1.512c-0.933 0-1.69 0.756-1.69 1.689v7.555c0 0.933 0.756 1.689 1.69 1.689h24.844c3.019 0 5.467-2.447 5.467-5.467s-2.448-5.467-5.467-5.467zM16.215 12.429l3.045-3.881c0.182-0.232 0.518-0.272 0.749-0.091s0.273 0.517 0.091 0.749l-3.045 3.881c-0.106 0.134-0.263 0.204-0.421 0.204-0.115 0-0.231-0.037-0.329-0.114-0.231-0.182-0.272-0.517-0.090-0.749zM26.667 29.005c-1.571 0-2.845-1.273-2.845-2.845s1.274-2.844 2.845-2.844c1.571 0 2.844 1.273 2.844 2.844s-1.273 2.845-2.844 2.845z"></path>
</svg>
<svg id="frenzy-two-pines" width="32" height="32" viewBox="0 0 32 32" x="576" y="96">
<path d="M13.631 16.221h1.994c0.552 0 1.050-0.333 1.261-0.843 0.212-0.51 0.095-1.097-0.296-1.488l-3.907-3.908h1.899c0.457 0 0.871-0.276 1.046-0.699s0.078-0.91-0.246-1.233l-5.055-5.055c-0.221-0.221-0.511-0.332-0.801-0.332s-0.579 0.111-0.8 0.332l-5.056 5.055c-0.323 0.323-0.42 0.81-0.244 1.233 0.175 0.423 0.587 0.699 1.044 0.699h1.9l-3.908 3.908c-0.391 0.391-0.508 0.978-0.297 1.488s0.709 0.843 1.263 0.843h1.992l-4.909 4.908c-0.498 0.498-0.648 1.247-0.377 1.898 0.269 0.652 0.904 1.076 1.609 1.076h4.687v4.515c0 0.397 0.323 0.719 0.719 0.719h4.755c0.397 0 0.718-0.322 0.718-0.719v-4.515h4.688c0.706 0 1.342-0.424 1.611-1.076 0.271-0.651 0.121-1.4-0.378-1.898l-4.909-4.908z"></path>
<path d="M31.594 22.807l-3.906-3.905h1.584c0.439 0 0.835-0.265 1.003-0.671 0.169-0.406 0.076-0.873-0.235-1.184l-3.108-3.108h1.51c0.365 0 0.693-0.219 0.831-0.556s0.063-0.724-0.195-0.981l-4.022-4.022c-0.352-0.352-0.921-0.352-1.273 0l-4.023 4.022c-0.257 0.257-0.334 0.645-0.195 0.981s0.468 0.556 0.832 0.556h1.51l-3.108 3.108c-0.28 0.28-0.372 0.684-0.268 1.058l0.755 0.755c0.091 0.024 0.183 0.042 0.28 0.042h1.584l-0.925 0.926c0.96 1.105 1.229 2.65 0.663 4.017-0.213 0.516-0.531 0.963-0.919 1.33h1.986v3.445c0 0.397 0.322 0.719 0.719 0.719h3.49c0.396 0 0.719-0.322 0.719-0.719v-3.445h3.729c0.562 0 1.067-0.338 1.281-0.856s0.096-1.115-0.3-1.511z"></path>
</svg>
<svg id="frenzy-walking-with-a-storm" width="32" height="32" viewBox="0 0 32 32" x="624" y="96">
<path d="M24.47 7.807c1.518 0 2.749-1.231 2.749-2.75s-1.231-2.749-2.749-2.749c-1.517 0-2.749 1.231-2.749 2.749s1.232 2.75 2.749 2.75z"></path>
<path d="M28.733 13.902c-0.211-0.651-0.907-1.008-1.563-0.798l-2.673 0.866 0.409-3.117c0.080-0.612-0.085-1.23-0.462-1.72s-0.931-0.809-1.543-0.889c-0.525-0.069-1.031 0.044-1.453 0.295-0.325 0.193-5.337 3.354-5.337 3.354-0.316 0.205-0.523 0.542-0.561 0.916s0.097 0.746 0.364 1.010l3.464 3.406-0.358 2.732-0.799 4.075-3.828 4.535c-0.537 0.637-0.457 1.591 0.18 2.129 0.283 0.239 0.63 0.356 0.974 0.356 0.43 0 0.857-0.182 1.156-0.536l4.080-4.834c0.166-0.196 0.278-0.432 0.328-0.683l0.611-3.117 1.267 1.76 0.389 6.933c0.044 0.805 0.711 1.426 1.507 1.426 0.029 0 0.057-0.001 0.085-0.002 0.833-0.047 1.471-0.76 1.423-1.593l-0.413-7.374c-0.016-0.288-0.114-0.564-0.281-0.798l-1.933-2.686 0.374-2.854 3.795-1.229c0.652-0.211 1.010-0.911 0.798-1.563zM18.759 13.135l1.263-0.818-0.239 1.825-1.024-1.006z"></path>
<path d="M13.665 8.010c0.892 0 1.613-0.758 1.613-1.692 0-0.829-0.571-1.516-1.322-1.66 0.144-0.383 0.232-0.793 0.232-1.228 0-1.895-1.512-3.43-3.376-3.43-1.462 0-2.695 0.948-3.165 2.268-0.299-0.133-0.63-0.215-0.984-0.215-1.262 0-2.287 0.955-2.287 2.132 0 0.17 0.027 0.333 0.067 0.492-0.708 0.179-1.237 0.842-1.237 1.64 0 0.934 0.722 1.692 1.613 1.692h2.944l-0.702 2.172c-0.033 0.103-0.053 0.217-0.053 0.332 0 0.596 0.484 1.079 1.079 1.079h1.043l-0.523 3.101c-0.031 0.181 0.060 0.369 0.234 0.454 0.212 0.104 0.467 0.016 0.571-0.196l2.010-4.108c0.062-0.129 0.099-0.278 0.099-0.43 0-0.541-0.438-0.979-0.979-0.979h-0.972l0.46-1.425h3.633z"></path>
</svg>
<svg id="frenzy-water-ski" width="32" height="32" viewBox="0 0 32 32" x="672" y="96">
<path d="M31.688 28.416c-0.416-0.416-1.089-0.416-1.504-0.001-0.334 0.334-0.879 0.334-1.213 0.001-1.128-1.129-3.092-1.129-4.218-0.002l-0.016 0.017c-0.325 0.31-0.878 0.304-1.195-0.015-1.126-1.128-3.091-1.129-4.221 0.001-0.318 0.318-0.89 0.32-1.212-0.002-0.566-0.566-1.343-0.848-2.12-0.845l0.239-6.709c0.021-0.566-0.283-1.094-0.781-1.363l-2.381-1.285-1.088-6.312 1.755 1.351c0.185 0.143 0.413 0.221 0.648 0.221h3.563v1.317c0 0.398 0.238 0.754 0.605 0.905 0.119 0.050 0.245 0.075 0.376 0.075 0.262 0 0.507-0.102 0.692-0.287l2.518-2.639 8.803 0.005c0.293 0 0.532-0.238 0.532-0.532s-0.239-0.532-0.532-0.532h-8.849l-2.472-2.45c-0.276-0.278-0.711-0.362-1.067-0.212-0.368 0.152-0.606 0.507-0.606 0.905v1.318h-3.201l-3.299-2.54-0.052-0.298c-0.109-0.631-0.464-1.193-0.988-1.563s-1.173-0.516-1.804-0.407c-1.315 0.227-2.197 1.476-1.969 2.79l1.503 8.726c0.103 0.591 0.435 1.118 0.924 1.463 0.25 0.177 0.66 0.399 0.931 0.529 0.979 0.471 3.23 1.631 3.23 1.631l-0.23 6.451c-0.006 0.17 0.023 0.332 0.071 0.487-0.141-0.036-0.276-0.095-0.383-0.201-0.564-0.564-1.312-0.874-2.107-0.874h-0.002c-0.798 0-1.547 0.311-2.111 0.875-0.322 0.323-0.885 0.324-1.209-0.001-1.118-1.119-3.103-1.118-4.219-0.002-0.334 0.334-0.879 0.335-1.214 0.001-0.416-0.415-1.089-0.415-1.504 0.001-0.414 0.415-0.414 1.089 0.001 1.504 1.161 1.161 3.056 1.16 4.221-0.001 0.32-0.32 0.889-0.321 1.209 0 1.128 1.129 3.092 1.13 4.219 0.001 0.162-0.162 0.377-0.251 0.607-0.251 0.001 0 0.001 0 0.001 0 0.228 0 0.442 0.089 0.607 0.253 0.556 0.555 1.323 0.873 2.107 0.873 0.798 0 1.545-0.31 2.113-0.877 0.32-0.321 0.887-0.322 1.211 0.002 1.109 1.111 3.112 1.111 4.219 0.001 0.326-0.325 0.889-0.325 1.211-0.002 1.128 1.129 3.094 1.13 4.22 0.002l0.016-0.017c0.323-0.311 0.874-0.307 1.195 0.017 1.163 1.161 3.058 1.161 4.22-0.001 0.416-0.415 0.416-1.088 0.001-1.504zM19.007 13.309c0.313-0.185 0.532-0.511 0.532-0.9s-0.219-0.715-0.532-0.9v-1.278l2.179 2.179-2.179 2.179v-1.278z"></path>
<path d="M9.616 5.974c1.287-0.4 2.006-1.766 1.607-3.053s-1.767-2.006-3.054-1.606c-1.285 0.399-2.005 1.767-1.606 3.053 0.4 1.287 1.768 2.006 3.053 1.606z"></path>
<path d="M0.781 24.97c0 0 0.53-0.13 1.383-0.234 5.213-0.631 7.224 1.705 7.224 1.705 0.043 0.037 0.109 0.035 0.151-0.005 0.043-0.043 0.046-0.114 0.002-0.158 0 0-1.901-2.675-7.445-2.472-0.892 0.033-1.51 0.118-1.51 0.118l-0.009 0.002c-0.016 0.003-0.032 0.006-0.047 0.009-0.287 0.070-0.461 0.357-0.393 0.643 0.070 0.286 0.357 0.461 0.644 0.392z"></path>
<path d="M4.747 22.53c0.020 0 0.105-0.023 0.329-0.041 0.22-0.021 0.547-0.037 0.939-0.016 4.317 0.231 5.613 3.958 5.613 3.958 0.038 0.077 0.129 0.116 0.213 0.088 0.091-0.031 0.141-0.13 0.11-0.222 0 0-0.783-4.246-5.766-5.215-0.459-0.089-0.85-0.123-1.13-0.135-0.276-0.016-0.477-0.003-0.457-0.005-0.438 0.041-0.76 0.43-0.719 0.868 0.040 0.439 0.43 0.761 0.868 0.72z"></path>
</svg>
<svg id="frenzy-wheelchair-sport" width="32" height="32" viewBox="0 0 32 32" x="720" y="96">
<path d="M18.306 10.197l-3.422 1.811-2.272-1.772c-0.031-0.104-0.060-0.209-0.105-0.31-0.283-0.622-0.802-1.107-1.441-1.347l-0.016-0.006c-1.333-0.5-2.82 0.177-3.319 1.51l-2.136 5.701c-0.102 0.020-0.202 0.049-0.302 0.074l-1.811-6.961c-0.163-0.63-0.807-1.008-1.435-0.842-0.629 0.163-1.006 0.806-0.841 1.435l1.906 7.325c-1.873 1.248-3.109 3.377-3.109 5.791 0 3.836 3.121 6.957 6.957 6.957 1.566 0 3.008-0.526 4.172-1.402h5.367c0.583 0 1.056-0.473 1.056-1.056 0-0.083-0.029-0.156-0.046-0.233 0.513-0.426 0.726-1.144 0.466-1.798l-2.587-6.521c-0.24-0.604-0.824-1-1.473-1-0.003 0-0.005 0-0.007 0l-2.167 0.010c-0.306-0.29-0.637-0.554-0.991-0.785l1.541-4.116 1.836 1.432c0.19 0.148 0.419 0.223 0.65 0.223 0.169 0 0.339-0.040 0.494-0.123l4.027-2.131c0.516-0.273 0.712-0.911 0.439-1.427-0.271-0.514-0.913-0.711-1.427-0.439zM13.875 23.339l1.074 2.709h-1.955c0.467-0.816 0.777-1.731 0.881-2.709zM11.56 22.605c0 2.538-2.065 4.603-4.604 4.603s-4.603-2.065-4.603-4.603c0-2.538 2.064-4.604 4.603-4.604s4.604 2.065 4.604 4.604z"></path>
<path d="M12.852 8.244c1.605 0 2.904-1.3 2.904-2.904 0-1.603-1.299-2.902-2.904-2.902-1.602 0-2.901 1.3-2.901 2.902 0 1.604 1.299 2.904 2.901 2.904z"></path>
<path d="M6.957 21.272c-0.736 0-1.332 0.596-1.332 1.333s0.596 1.332 1.332 1.332c0.736 0 1.333-0.596 1.333-1.332s-0.597-1.333-1.333-1.333z"></path>
<path d="M23.627 17.69c-1.244 0-2.25 1.007-2.25 2.25s1.006 2.25 2.25 2.25c1.244 0 2.25-1.007 2.25-2.25s-1.006-2.25-2.25-2.25z"></path>
<path d="M31.962 19.033c-0.053-0.061-0.148-0.068-0.21-0.013-0.313 0.277-3.227 2.494-4.037 7.315l-1.369-2.64c-0.134-0.259-0.453-0.36-0.712-0.226s-0.36 0.453-0.226 0.711l2.098 4.047c0.084 0.159 0.245 0.273 0.437 0.284 0.292 0.017 0.541-0.205 0.558-0.495l0.001-0.008v-0.001c0.019-0.769 0.318-5.771 3.439-8.754l0.017-0.017c0.053-0.055 0.056-0.143 0.004-0.202z"></path>
</svg>
<svg id="frenzy-wild-deer" width="32" height="32" viewBox="0 0 32 32" x="0" y="144">
<path d="M28.789 2.33h0.935c0.3 0 0.543-0.243 0.543-0.543s-0.243-0.543-0.543-0.543h-0.935c-0.558 0-1.076 0.276-1.388 0.737l-1.186 1.754-0.901-1.605c-0.145-0.262-0.475-0.355-0.739-0.208-0.261 0.147-0.354 0.477-0.207 0.739l1.167 2.079-0.692 1.025c-0.21-0.046-0.429-0.049-0.643 0.001-0.082 0.018-0.157 0.051-0.233 0.083l-2.223-3.045 0.937-1.433c0.163-0.251 0.093-0.587-0.158-0.751-0.249-0.163-0.585-0.095-0.751 0.157l-0.763 1.167c-0.514-0.404-1.2-0.558-1.846-0.372l-0.972 0.28-1.11-1.616c-0.168-0.247-0.505-0.309-0.755-0.14-0.247 0.17-0.309 0.507-0.14 0.754l0.905 1.318-1.615 0.466c-0.288 0.083-0.453 0.384-0.371 0.672 0.082 0.287 0.378 0.451 0.672 0.371l3.684-1.062c0.397-0.113 0.824 0.033 1.065 0.364l0.565 0.773-1.866 0.789c-0.277 0.117-0.406 0.435-0.289 0.711 0.088 0.207 0.289 0.331 0.5 0.331 0.071 0 0.142-0.014 0.211-0.043l2.101-0.888 1.432 1.961-0.423 0.946-4.015 6.022h-11.294c-1.265 0-2.391 0.561-3.174 1.435-1.293-0.618-1.738-1.342-1.878-1.864-0.020-0.075-0.086-0.128-0.163-0.132s-0.148 0.041-0.177 0.113c-0.968 2.474 0.477 3.444 1.231 3.769-0.070 0.308-0.115 0.625-0.115 0.954 0 1.276 0.57 2.409 1.457 3.192l-1.679 2.565c-0.106 0.161-0.164 0.356-0.157 0.563l0.252 7.138c0.011 0.307 0.236 0.574 0.551 0.625 0.358 0.058 0.696-0.184 0.754-0.543l0.867-5.317 1.439 5.381c0.079 0.297 0.359 0.507 0.677 0.486 0.362-0.023 0.637-0.336 0.613-0.698l-0.42-6.518 1.795-2.601h6.648l1.213 2.426-1.143 6.618c-0.057 0.33 0.127 0.663 0.452 0.782 0.365 0.134 0.77-0.054 0.904-0.42l2.25-6.147 1.113 6.049c0.060 0.333 0.363 0.574 0.708 0.55 0.372-0.025 0.653-0.346 0.627-0.718l-0.724-10.69 4.106-9.343 2.413 1.078c0.357 0.159 0.763 0.171 1.129 0.031s0.66-0.419 0.819-0.776l0.145-0.324c0.268-0.601 0.106-1.308-0.398-1.731l-3.81-3.195 1.405-2.079 0.586 0.449c0.098 0.075 0.214 0.112 0.329 0.112 0.163 0 0.324-0.073 0.431-0.213 0.181-0.238 0.137-0.579-0.102-0.76l-0.637-0.487 0.51-0.754c0.11-0.162 0.293-0.259 0.49-0.259z"></path>
</svg>
<svg id="frenzy-wind-rose-compass" width="32" height="32" viewBox="0 0 32 32" x="48" y="144">
<path d="M20.076 4.753v-1.529c0.89 0 1.612-0.722 1.612-1.612s-0.722-1.612-1.612-1.612h-8.151c-0.89 0-1.612 0.722-1.612 1.612s0.722 1.612 1.612 1.612v1.529c-5.704 1.743-9.853 7.045-9.853 13.319 0 7.692 6.236 13.928 13.927 13.928 7.693 0 13.929-6.236 13.929-13.928 0-6.274-4.149-11.576-9.852-13.319zM15.999 29.94c-6.543 0-11.867-5.324-11.867-11.868s5.324-11.868 11.867-11.868c6.545 0 11.869 5.324 11.869 11.868s-5.325 11.868-11.869 11.868z"></path>
<path d="M15.999 7.279c-5.951 0-10.792 4.842-10.792 10.793s4.841 10.793 10.792 10.793c5.952 0 10.795-4.842 10.795-10.793s-4.843-10.793-10.795-10.793zM23.156 19.146h-4.942l1.759 1.759c0.315 0.315 0.315 0.825 0 1.14-0.158 0.157-0.363 0.236-0.569 0.236-0.207 0-0.414-0.079-0.571-0.236l-1.759-1.759v4.941c0 0.594-0.481 1.075-1.075 1.075-0.593 0-1.075-0.481-1.075-1.075v-4.94l-1.758 1.759c-0.158 0.157-0.364 0.236-0.57 0.236s-0.412-0.079-0.57-0.236c-0.315-0.315-0.315-0.825 0-1.14l1.759-1.759h-4.941c-0.594 0-1.075-0.481-1.075-1.075s0.481-1.075 1.075-1.075h4.94l-1.759-1.759c-0.315-0.315-0.315-0.825 0-1.14s0.825-0.315 1.14 0l1.759 1.759v-4.94c0-0.594 0.482-1.075 1.075-1.075 0.594 0 1.075 0.481 1.075 1.075v4.94l1.76-1.76c0.315-0.315 0.825-0.315 1.14 0s0.315 0.825 0 1.14l-1.759 1.759h4.941c0.593 0 1.075 0.481 1.075 1.075s-0.482 1.075-1.075 1.075z"></path>
</svg>
</svg>
